<?xml version="1.0" encoding="utf-8" standalone="no"?>
<!DOCTYPE svg PUBLIC "-//W3C//DTD SVG 1.1//EN"
  "http://www.w3.org/Graphics/SVG/1.1/DTD/svg11.dtd">
<!-- Created with matplotlib (http://matplotlib.org/) -->
<svg height="197.658125pt" version="1.1" viewBox="0 0 955.690148 197.658125" width="955.690148pt" xmlns="http://www.w3.org/2000/svg" xmlns:xlink="http://www.w3.org/1999/xlink">
 <defs>
  <style type="text/css">
*{stroke-linecap:butt;stroke-linejoin:round;}
  </style>
 </defs>
 <g id="figure_1">
  <g id="patch_1">
   <path d="M 0 197.658125 
L 955.690148 197.658125 
L 955.690148 0 
L 0 0 
z
" style="fill:#ffffff;"/>
  </g>
  <g id="axes_1">
   <g id="patch_2">
    <path d="M 40.603125 173.78 
L 933.403125 173.78 
L 933.403125 10.7 
L 40.603125 10.7 
z
" style="fill:#ffffff;"/>
   </g>
   <g id="matplotlib.axis_1">
    <g id="xtick_1">
     <g id="line2d_1">
      <defs>
       <path d="M 0 0 
L 0 3.5 
" id="m7860e51830" style="stroke:#000000;stroke-width:0.8;"/>
      </defs>
      <g>
       <use style="stroke:#000000;stroke-width:0.8;" x="81.184943" xlink:href="#m7860e51830" y="173.78"/>
      </g>
     </g>
     <g id="text_1">
      <!-- 2019-12-24 -->
      <defs>
       <path d="M 19.1875 8.296875 
L 53.609375 8.296875 
L 53.609375 0 
L 7.328125 0 
L 7.328125 8.296875 
Q 12.9375 14.109375 22.625 23.890625 
Q 32.328125 33.6875 34.8125 36.53125 
Q 39.546875 41.84375 41.421875 45.53125 
Q 43.3125 49.21875 43.3125 52.78125 
Q 43.3125 58.59375 39.234375 62.25 
Q 35.15625 65.921875 28.609375 65.921875 
Q 23.96875 65.921875 18.8125 64.3125 
Q 13.671875 62.703125 7.8125 59.421875 
L 7.8125 69.390625 
Q 13.765625 71.78125 18.9375 73 
Q 24.125 74.21875 28.421875 74.21875 
Q 39.75 74.21875 46.484375 68.546875 
Q 53.21875 62.890625 53.21875 53.421875 
Q 53.21875 48.921875 51.53125 44.890625 
Q 49.859375 40.875 45.40625 35.40625 
Q 44.1875 33.984375 37.640625 27.21875 
Q 31.109375 20.453125 19.1875 8.296875 
z
" id="DejaVuSans-32"/>
       <path d="M 31.78125 66.40625 
Q 24.171875 66.40625 20.328125 58.90625 
Q 16.5 51.421875 16.5 36.375 
Q 16.5 21.390625 20.328125 13.890625 
Q 24.171875 6.390625 31.78125 6.390625 
Q 39.453125 6.390625 43.28125 13.890625 
Q 47.125 21.390625 47.125 36.375 
Q 47.125 51.421875 43.28125 58.90625 
Q 39.453125 66.40625 31.78125 66.40625 
z
M 31.78125 74.21875 
Q 44.046875 74.21875 50.515625 64.515625 
Q 56.984375 54.828125 56.984375 36.375 
Q 56.984375 17.96875 50.515625 8.265625 
Q 44.046875 -1.421875 31.78125 -1.421875 
Q 19.53125 -1.421875 13.0625 8.265625 
Q 6.59375 17.96875 6.59375 36.375 
Q 6.59375 54.828125 13.0625 64.515625 
Q 19.53125 74.21875 31.78125 74.21875 
z
" id="DejaVuSans-30"/>
       <path d="M 12.40625 8.296875 
L 28.515625 8.296875 
L 28.515625 63.921875 
L 10.984375 60.40625 
L 10.984375 69.390625 
L 28.421875 72.90625 
L 38.28125 72.90625 
L 38.28125 8.296875 
L 54.390625 8.296875 
L 54.390625 0 
L 12.40625 0 
z
" id="DejaVuSans-31"/>
       <path d="M 10.984375 1.515625 
L 10.984375 10.5 
Q 14.703125 8.734375 18.5 7.8125 
Q 22.3125 6.890625 25.984375 6.890625 
Q 35.75 6.890625 40.890625 13.453125 
Q 46.046875 20.015625 46.78125 33.40625 
Q 43.953125 29.203125 39.59375 26.953125 
Q 35.25 24.703125 29.984375 24.703125 
Q 19.046875 24.703125 12.671875 31.3125 
Q 6.296875 37.9375 6.296875 49.421875 
Q 6.296875 60.640625 12.9375 67.421875 
Q 19.578125 74.21875 30.609375 74.21875 
Q 43.265625 74.21875 49.921875 64.515625 
Q 56.59375 54.828125 56.59375 36.375 
Q 56.59375 19.140625 48.40625 8.859375 
Q 40.234375 -1.421875 26.421875 -1.421875 
Q 22.703125 -1.421875 18.890625 -0.6875 
Q 15.09375 0.046875 10.984375 1.515625 
z
M 30.609375 32.421875 
Q 37.25 32.421875 41.125 36.953125 
Q 45.015625 41.5 45.015625 49.421875 
Q 45.015625 57.28125 41.125 61.84375 
Q 37.25 66.40625 30.609375 66.40625 
Q 23.96875 66.40625 20.09375 61.84375 
Q 16.21875 57.28125 16.21875 49.421875 
Q 16.21875 41.5 20.09375 36.953125 
Q 23.96875 32.421875 30.609375 32.421875 
z
" id="DejaVuSans-39"/>
       <path d="M 4.890625 31.390625 
L 31.203125 31.390625 
L 31.203125 23.390625 
L 4.890625 23.390625 
z
" id="DejaVuSans-2d"/>
       <path d="M 37.796875 64.3125 
L 12.890625 25.390625 
L 37.796875 25.390625 
z
M 35.203125 72.90625 
L 47.609375 72.90625 
L 47.609375 25.390625 
L 58.015625 25.390625 
L 58.015625 17.1875 
L 47.609375 17.1875 
L 47.609375 0 
L 37.796875 0 
L 37.796875 17.1875 
L 4.890625 17.1875 
L 4.890625 26.703125 
z
" id="DejaVuSans-34"/>
      </defs>
      <g transform="translate(52.127131 188.378438)scale(0.1 -0.1)">
       <use xlink:href="#DejaVuSans-32"/>
       <use x="63.623047" xlink:href="#DejaVuSans-30"/>
       <use x="127.246094" xlink:href="#DejaVuSans-31"/>
       <use x="190.869141" xlink:href="#DejaVuSans-39"/>
       <use x="254.492188" xlink:href="#DejaVuSans-2d"/>
       <use x="290.576172" xlink:href="#DejaVuSans-31"/>
       <use x="354.199219" xlink:href="#DejaVuSans-32"/>
       <use x="417.822266" xlink:href="#DejaVuSans-2d"/>
       <use x="453.90625" xlink:href="#DejaVuSans-32"/>
       <use x="517.529297" xlink:href="#DejaVuSans-34"/>
      </g>
     </g>
    </g>
    <g id="xtick_2">
     <g id="line2d_2">
      <g>
       <use style="stroke:#000000;stroke-width:0.8;" x="174.323542" xlink:href="#m7860e51830" y="173.78"/>
      </g>
     </g>
     <g id="text_2">
      <!-- 2019-12-31 -->
      <defs>
       <path d="M 40.578125 39.3125 
Q 47.65625 37.796875 51.625 33 
Q 55.609375 28.21875 55.609375 21.1875 
Q 55.609375 10.40625 48.1875 4.484375 
Q 40.765625 -1.421875 27.09375 -1.421875 
Q 22.515625 -1.421875 17.65625 -0.515625 
Q 12.796875 0.390625 7.625 2.203125 
L 7.625 11.71875 
Q 11.71875 9.328125 16.59375 8.109375 
Q 21.484375 6.890625 26.8125 6.890625 
Q 36.078125 6.890625 40.9375 10.546875 
Q 45.796875 14.203125 45.796875 21.1875 
Q 45.796875 27.640625 41.28125 31.265625 
Q 36.765625 34.90625 28.71875 34.90625 
L 20.21875 34.90625 
L 20.21875 43.015625 
L 29.109375 43.015625 
Q 36.375 43.015625 40.234375 45.921875 
Q 44.09375 48.828125 44.09375 54.296875 
Q 44.09375 59.90625 40.109375 62.90625 
Q 36.140625 65.921875 28.71875 65.921875 
Q 24.65625 65.921875 20.015625 65.03125 
Q 15.375 64.15625 9.8125 62.3125 
L 9.8125 71.09375 
Q 15.4375 72.65625 20.34375 73.4375 
Q 25.25 74.21875 29.59375 74.21875 
Q 40.828125 74.21875 47.359375 69.109375 
Q 53.90625 64.015625 53.90625 55.328125 
Q 53.90625 49.265625 50.4375 45.09375 
Q 46.96875 40.921875 40.578125 39.3125 
z
" id="DejaVuSans-33"/>
      </defs>
      <g transform="translate(145.26573 188.378438)scale(0.1 -0.1)">
       <use xlink:href="#DejaVuSans-32"/>
       <use x="63.623047" xlink:href="#DejaVuSans-30"/>
       <use x="127.246094" xlink:href="#DejaVuSans-31"/>
       <use x="190.869141" xlink:href="#DejaVuSans-39"/>
       <use x="254.492188" xlink:href="#DejaVuSans-2d"/>
       <use x="290.576172" xlink:href="#DejaVuSans-31"/>
       <use x="354.199219" xlink:href="#DejaVuSans-32"/>
       <use x="417.822266" xlink:href="#DejaVuSans-2d"/>
       <use x="453.90625" xlink:href="#DejaVuSans-33"/>
       <use x="517.529297" xlink:href="#DejaVuSans-31"/>
      </g>
     </g>
    </g>
    <g id="xtick_3">
     <g id="line2d_3">
      <g>
       <use style="stroke:#000000;stroke-width:0.8;" x="267.462141" xlink:href="#m7860e51830" y="173.78"/>
      </g>
     </g>
     <g id="text_3">
      <!-- 2020-01-07 -->
      <defs>
       <path d="M 8.203125 72.90625 
L 55.078125 72.90625 
L 55.078125 68.703125 
L 28.609375 0 
L 18.3125 0 
L 43.21875 64.59375 
L 8.203125 64.59375 
z
" id="DejaVuSans-37"/>
      </defs>
      <g transform="translate(238.404329 188.378438)scale(0.1 -0.1)">
       <use xlink:href="#DejaVuSans-32"/>
       <use x="63.623047" xlink:href="#DejaVuSans-30"/>
       <use x="127.246094" xlink:href="#DejaVuSans-32"/>
       <use x="190.869141" xlink:href="#DejaVuSans-30"/>
       <use x="254.492188" xlink:href="#DejaVuSans-2d"/>
       <use x="290.576172" xlink:href="#DejaVuSans-30"/>
       <use x="354.199219" xlink:href="#DejaVuSans-31"/>
       <use x="417.822266" xlink:href="#DejaVuSans-2d"/>
       <use x="453.90625" xlink:href="#DejaVuSans-30"/>
       <use x="517.529297" xlink:href="#DejaVuSans-37"/>
      </g>
     </g>
    </g>
    <g id="xtick_4">
     <g id="line2d_4">
      <g>
       <use style="stroke:#000000;stroke-width:0.8;" x="360.60074" xlink:href="#m7860e51830" y="173.78"/>
      </g>
     </g>
     <g id="text_4">
      <!-- 2020-01-14 -->
      <g transform="translate(331.542928 188.378438)scale(0.1 -0.1)">
       <use xlink:href="#DejaVuSans-32"/>
       <use x="63.623047" xlink:href="#DejaVuSans-30"/>
       <use x="127.246094" xlink:href="#DejaVuSans-32"/>
       <use x="190.869141" xlink:href="#DejaVuSans-30"/>
       <use x="254.492188" xlink:href="#DejaVuSans-2d"/>
       <use x="290.576172" xlink:href="#DejaVuSans-30"/>
       <use x="354.199219" xlink:href="#DejaVuSans-31"/>
       <use x="417.822266" xlink:href="#DejaVuSans-2d"/>
       <use x="453.90625" xlink:href="#DejaVuSans-31"/>
       <use x="517.529297" xlink:href="#DejaVuSans-34"/>
      </g>
     </g>
    </g>
    <g id="xtick_5">
     <g id="line2d_5">
      <g>
       <use style="stroke:#000000;stroke-width:0.8;" x="453.73934" xlink:href="#m7860e51830" y="173.78"/>
      </g>
     </g>
     <g id="text_5">
      <!-- 2020-01-21 -->
      <g transform="translate(424.681527 188.378438)scale(0.1 -0.1)">
       <use xlink:href="#DejaVuSans-32"/>
       <use x="63.623047" xlink:href="#DejaVuSans-30"/>
       <use x="127.246094" xlink:href="#DejaVuSans-32"/>
       <use x="190.869141" xlink:href="#DejaVuSans-30"/>
       <use x="254.492188" xlink:href="#DejaVuSans-2d"/>
       <use x="290.576172" xlink:href="#DejaVuSans-30"/>
       <use x="354.199219" xlink:href="#DejaVuSans-31"/>
       <use x="417.822266" xlink:href="#DejaVuSans-2d"/>
       <use x="453.90625" xlink:href="#DejaVuSans-32"/>
       <use x="517.529297" xlink:href="#DejaVuSans-31"/>
      </g>
     </g>
    </g>
    <g id="xtick_6">
     <g id="line2d_6">
      <g>
       <use style="stroke:#000000;stroke-width:0.8;" x="546.877939" xlink:href="#m7860e51830" y="173.78"/>
      </g>
     </g>
     <g id="text_6">
      <!-- 2020-01-28 -->
      <defs>
       <path d="M 31.78125 34.625 
Q 24.75 34.625 20.71875 30.859375 
Q 16.703125 27.09375 16.703125 20.515625 
Q 16.703125 13.921875 20.71875 10.15625 
Q 24.75 6.390625 31.78125 6.390625 
Q 38.8125 6.390625 42.859375 10.171875 
Q 46.921875 13.96875 46.921875 20.515625 
Q 46.921875 27.09375 42.890625 30.859375 
Q 38.875 34.625 31.78125 34.625 
z
M 21.921875 38.8125 
Q 15.578125 40.375 12.03125 44.71875 
Q 8.5 49.078125 8.5 55.328125 
Q 8.5 64.0625 14.71875 69.140625 
Q 20.953125 74.21875 31.78125 74.21875 
Q 42.671875 74.21875 48.875 69.140625 
Q 55.078125 64.0625 55.078125 55.328125 
Q 55.078125 49.078125 51.53125 44.71875 
Q 48 40.375 41.703125 38.8125 
Q 48.828125 37.15625 52.796875 32.3125 
Q 56.78125 27.484375 56.78125 20.515625 
Q 56.78125 9.90625 50.3125 4.234375 
Q 43.84375 -1.421875 31.78125 -1.421875 
Q 19.734375 -1.421875 13.25 4.234375 
Q 6.78125 9.90625 6.78125 20.515625 
Q 6.78125 27.484375 10.78125 32.3125 
Q 14.796875 37.15625 21.921875 38.8125 
z
M 18.3125 54.390625 
Q 18.3125 48.734375 21.84375 45.5625 
Q 25.390625 42.390625 31.78125 42.390625 
Q 38.140625 42.390625 41.71875 45.5625 
Q 45.3125 48.734375 45.3125 54.390625 
Q 45.3125 60.0625 41.71875 63.234375 
Q 38.140625 66.40625 31.78125 66.40625 
Q 25.390625 66.40625 21.84375 63.234375 
Q 18.3125 60.0625 18.3125 54.390625 
z
" id="DejaVuSans-38"/>
      </defs>
      <g transform="translate(517.820126 188.378438)scale(0.1 -0.1)">
       <use xlink:href="#DejaVuSans-32"/>
       <use x="63.623047" xlink:href="#DejaVuSans-30"/>
       <use x="127.246094" xlink:href="#DejaVuSans-32"/>
       <use x="190.869141" xlink:href="#DejaVuSans-30"/>
       <use x="254.492188" xlink:href="#DejaVuSans-2d"/>
       <use x="290.576172" xlink:href="#DejaVuSans-30"/>
       <use x="354.199219" xlink:href="#DejaVuSans-31"/>
       <use x="417.822266" xlink:href="#DejaVuSans-2d"/>
       <use x="453.90625" xlink:href="#DejaVuSans-32"/>
       <use x="517.529297" xlink:href="#DejaVuSans-38"/>
      </g>
     </g>
    </g>
    <g id="xtick_7">
     <g id="line2d_7">
      <g>
       <use style="stroke:#000000;stroke-width:0.8;" x="640.016538" xlink:href="#m7860e51830" y="173.78"/>
      </g>
     </g>
     <g id="text_7">
      <!-- 2020-02-04 -->
      <g transform="translate(610.958725 188.378438)scale(0.1 -0.1)">
       <use xlink:href="#DejaVuSans-32"/>
       <use x="63.623047" xlink:href="#DejaVuSans-30"/>
       <use x="127.246094" xlink:href="#DejaVuSans-32"/>
       <use x="190.869141" xlink:href="#DejaVuSans-30"/>
       <use x="254.492188" xlink:href="#DejaVuSans-2d"/>
       <use x="290.576172" xlink:href="#DejaVuSans-30"/>
       <use x="354.199219" xlink:href="#DejaVuSans-32"/>
       <use x="417.822266" xlink:href="#DejaVuSans-2d"/>
       <use x="453.90625" xlink:href="#DejaVuSans-30"/>
       <use x="517.529297" xlink:href="#DejaVuSans-34"/>
      </g>
     </g>
    </g>
    <g id="xtick_8">
     <g id="line2d_8">
      <g>
       <use style="stroke:#000000;stroke-width:0.8;" x="733.155137" xlink:href="#m7860e51830" y="173.78"/>
      </g>
     </g>
     <g id="text_8">
      <!-- 2020-02-11 -->
      <g transform="translate(704.097324 188.378438)scale(0.1 -0.1)">
       <use xlink:href="#DejaVuSans-32"/>
       <use x="63.623047" xlink:href="#DejaVuSans-30"/>
       <use x="127.246094" xlink:href="#DejaVuSans-32"/>
       <use x="190.869141" xlink:href="#DejaVuSans-30"/>
       <use x="254.492188" xlink:href="#DejaVuSans-2d"/>
       <use x="290.576172" xlink:href="#DejaVuSans-30"/>
       <use x="354.199219" xlink:href="#DejaVuSans-32"/>
       <use x="417.822266" xlink:href="#DejaVuSans-2d"/>
       <use x="453.90625" xlink:href="#DejaVuSans-31"/>
       <use x="517.529297" xlink:href="#DejaVuSans-31"/>
      </g>
     </g>
    </g>
    <g id="xtick_9">
     <g id="line2d_9">
      <g>
       <use style="stroke:#000000;stroke-width:0.8;" x="826.293736" xlink:href="#m7860e51830" y="173.78"/>
      </g>
     </g>
     <g id="text_9">
      <!-- 2020-02-18 -->
      <g transform="translate(797.235924 188.378438)scale(0.1 -0.1)">
       <use xlink:href="#DejaVuSans-32"/>
       <use x="63.623047" xlink:href="#DejaVuSans-30"/>
       <use x="127.246094" xlink:href="#DejaVuSans-32"/>
       <use x="190.869141" xlink:href="#DejaVuSans-30"/>
       <use x="254.492188" xlink:href="#DejaVuSans-2d"/>
       <use x="290.576172" xlink:href="#DejaVuSans-30"/>
       <use x="354.199219" xlink:href="#DejaVuSans-32"/>
       <use x="417.822266" xlink:href="#DejaVuSans-2d"/>
       <use x="453.90625" xlink:href="#DejaVuSans-31"/>
       <use x="517.529297" xlink:href="#DejaVuSans-38"/>
      </g>
     </g>
    </g>
    <g id="xtick_10">
     <g id="line2d_10">
      <g>
       <use style="stroke:#000000;stroke-width:0.8;" x="919.432335" xlink:href="#m7860e51830" y="173.78"/>
      </g>
     </g>
     <g id="text_10">
      <!-- 2020-02-25 -->
      <defs>
       <path d="M 10.796875 72.90625 
L 49.515625 72.90625 
L 49.515625 64.59375 
L 19.828125 64.59375 
L 19.828125 46.734375 
Q 21.96875 47.46875 24.109375 47.828125 
Q 26.265625 48.1875 28.421875 48.1875 
Q 40.625 48.1875 47.75 41.5 
Q 54.890625 34.8125 54.890625 23.390625 
Q 54.890625 11.625 47.5625 5.09375 
Q 40.234375 -1.421875 26.90625 -1.421875 
Q 22.3125 -1.421875 17.546875 -0.640625 
Q 12.796875 0.140625 7.71875 1.703125 
L 7.71875 11.625 
Q 12.109375 9.234375 16.796875 8.0625 
Q 21.484375 6.890625 26.703125 6.890625 
Q 35.15625 6.890625 40.078125 11.328125 
Q 45.015625 15.765625 45.015625 23.390625 
Q 45.015625 31 40.078125 35.4375 
Q 35.15625 39.890625 26.703125 39.890625 
Q 22.75 39.890625 18.8125 39.015625 
Q 14.890625 38.140625 10.796875 36.28125 
z
" id="DejaVuSans-35"/>
      </defs>
      <g transform="translate(890.374523 188.378438)scale(0.1 -0.1)">
       <use xlink:href="#DejaVuSans-32"/>
       <use x="63.623047" xlink:href="#DejaVuSans-30"/>
       <use x="127.246094" xlink:href="#DejaVuSans-32"/>
       <use x="190.869141" xlink:href="#DejaVuSans-30"/>
       <use x="254.492188" xlink:href="#DejaVuSans-2d"/>
       <use x="290.576172" xlink:href="#DejaVuSans-30"/>
       <use x="354.199219" xlink:href="#DejaVuSans-32"/>
       <use x="417.822266" xlink:href="#DejaVuSans-2d"/>
       <use x="453.90625" xlink:href="#DejaVuSans-32"/>
       <use x="517.529297" xlink:href="#DejaVuSans-35"/>
      </g>
     </g>
    </g>
   </g>
   <g id="matplotlib.axis_2">
    <g id="ytick_1">
     <g id="line2d_11">
      <defs>
       <path d="M 0 0 
L -3.5 0 
" id="md8df27374e" style="stroke:#000000;stroke-width:0.8;"/>
      </defs>
      <g>
       <use style="stroke:#000000;stroke-width:0.8;" x="40.603125" xlink:href="#md8df27374e" y="167.978735"/>
      </g>
     </g>
     <g id="text_11">
      <!-- 0 -->
      <g transform="translate(27.240625 171.777954)scale(0.1 -0.1)">
       <use xlink:href="#DejaVuSans-30"/>
      </g>
     </g>
    </g>
    <g id="ytick_2">
     <g id="line2d_12">
      <g>
       <use style="stroke:#000000;stroke-width:0.8;" x="40.603125" xlink:href="#md8df27374e" y="135.749486"/>
      </g>
     </g>
     <g id="text_12">
      <!-- 20 -->
      <g transform="translate(20.878125 139.548705)scale(0.1 -0.1)">
       <use xlink:href="#DejaVuSans-32"/>
       <use x="63.623047" xlink:href="#DejaVuSans-30"/>
      </g>
     </g>
    </g>
    <g id="ytick_3">
     <g id="line2d_13">
      <g>
       <use style="stroke:#000000;stroke-width:0.8;" x="40.603125" xlink:href="#md8df27374e" y="103.520237"/>
      </g>
     </g>
     <g id="text_13">
      <!-- 40 -->
      <g transform="translate(20.878125 107.319456)scale(0.1 -0.1)">
       <use xlink:href="#DejaVuSans-34"/>
       <use x="63.623047" xlink:href="#DejaVuSans-30"/>
      </g>
     </g>
    </g>
    <g id="ytick_4">
     <g id="line2d_14">
      <g>
       <use style="stroke:#000000;stroke-width:0.8;" x="40.603125" xlink:href="#md8df27374e" y="71.290988"/>
      </g>
     </g>
     <g id="text_14">
      <!-- 60 -->
      <defs>
       <path d="M 33.015625 40.375 
Q 26.375 40.375 22.484375 35.828125 
Q 18.609375 31.296875 18.609375 23.390625 
Q 18.609375 15.53125 22.484375 10.953125 
Q 26.375 6.390625 33.015625 6.390625 
Q 39.65625 6.390625 43.53125 10.953125 
Q 47.40625 15.53125 47.40625 23.390625 
Q 47.40625 31.296875 43.53125 35.828125 
Q 39.65625 40.375 33.015625 40.375 
z
M 52.59375 71.296875 
L 52.59375 62.3125 
Q 48.875 64.0625 45.09375 64.984375 
Q 41.3125 65.921875 37.59375 65.921875 
Q 27.828125 65.921875 22.671875 59.328125 
Q 17.53125 52.734375 16.796875 39.40625 
Q 19.671875 43.65625 24.015625 45.921875 
Q 28.375 48.1875 33.59375 48.1875 
Q 44.578125 48.1875 50.953125 41.515625 
Q 57.328125 34.859375 57.328125 23.390625 
Q 57.328125 12.15625 50.6875 5.359375 
Q 44.046875 -1.421875 33.015625 -1.421875 
Q 20.359375 -1.421875 13.671875 8.265625 
Q 6.984375 17.96875 6.984375 36.375 
Q 6.984375 53.65625 15.1875 63.9375 
Q 23.390625 74.21875 37.203125 74.21875 
Q 40.921875 74.21875 44.703125 73.484375 
Q 48.484375 72.75 52.59375 71.296875 
z
" id="DejaVuSans-36"/>
      </defs>
      <g transform="translate(20.878125 75.090207)scale(0.1 -0.1)">
       <use xlink:href="#DejaVuSans-36"/>
       <use x="63.623047" xlink:href="#DejaVuSans-30"/>
      </g>
     </g>
    </g>
    <g id="ytick_5">
     <g id="line2d_15">
      <g>
       <use style="stroke:#000000;stroke-width:0.8;" x="40.603125" xlink:href="#md8df27374e" y="39.061739"/>
      </g>
     </g>
     <g id="text_15">
      <!-- 80 -->
      <g transform="translate(20.878125 42.860958)scale(0.1 -0.1)">
       <use xlink:href="#DejaVuSans-38"/>
       <use x="63.623047" xlink:href="#DejaVuSans-30"/>
      </g>
     </g>
    </g>
    <g id="text_16">
     <!-- Total sequenced genomes -->
     <defs>
      <path d="M -0.296875 72.90625 
L 61.375 72.90625 
L 61.375 64.59375 
L 35.5 64.59375 
L 35.5 0 
L 25.59375 0 
L 25.59375 64.59375 
L -0.296875 64.59375 
z
" id="DejaVuSans-54"/>
      <path d="M 30.609375 48.390625 
Q 23.390625 48.390625 19.1875 42.75 
Q 14.984375 37.109375 14.984375 27.296875 
Q 14.984375 17.484375 19.15625 11.84375 
Q 23.34375 6.203125 30.609375 6.203125 
Q 37.796875 6.203125 41.984375 11.859375 
Q 46.1875 17.53125 46.1875 27.296875 
Q 46.1875 37.015625 41.984375 42.703125 
Q 37.796875 48.390625 30.609375 48.390625 
z
M 30.609375 56 
Q 42.328125 56 49.015625 48.375 
Q 55.71875 40.765625 55.71875 27.296875 
Q 55.71875 13.875 49.015625 6.21875 
Q 42.328125 -1.421875 30.609375 -1.421875 
Q 18.84375 -1.421875 12.171875 6.21875 
Q 5.515625 13.875 5.515625 27.296875 
Q 5.515625 40.765625 12.171875 48.375 
Q 18.84375 56 30.609375 56 
z
" id="DejaVuSans-6f"/>
      <path d="M 18.3125 70.21875 
L 18.3125 54.6875 
L 36.8125 54.6875 
L 36.8125 47.703125 
L 18.3125 47.703125 
L 18.3125 18.015625 
Q 18.3125 11.328125 20.140625 9.421875 
Q 21.96875 7.515625 27.59375 7.515625 
L 36.8125 7.515625 
L 36.8125 0 
L 27.59375 0 
Q 17.1875 0 13.234375 3.875 
Q 9.28125 7.765625 9.28125 18.015625 
L 9.28125 47.703125 
L 2.6875 47.703125 
L 2.6875 54.6875 
L 9.28125 54.6875 
L 9.28125 70.21875 
z
" id="DejaVuSans-74"/>
      <path d="M 34.28125 27.484375 
Q 23.390625 27.484375 19.1875 25 
Q 14.984375 22.515625 14.984375 16.5 
Q 14.984375 11.71875 18.140625 8.90625 
Q 21.296875 6.109375 26.703125 6.109375 
Q 34.1875 6.109375 38.703125 11.40625 
Q 43.21875 16.703125 43.21875 25.484375 
L 43.21875 27.484375 
z
M 52.203125 31.203125 
L 52.203125 0 
L 43.21875 0 
L 43.21875 8.296875 
Q 40.140625 3.328125 35.546875 0.953125 
Q 30.953125 -1.421875 24.3125 -1.421875 
Q 15.921875 -1.421875 10.953125 3.296875 
Q 6 8.015625 6 15.921875 
Q 6 25.140625 12.171875 29.828125 
Q 18.359375 34.515625 30.609375 34.515625 
L 43.21875 34.515625 
L 43.21875 35.40625 
Q 43.21875 41.609375 39.140625 45 
Q 35.0625 48.390625 27.6875 48.390625 
Q 23 48.390625 18.546875 47.265625 
Q 14.109375 46.140625 10.015625 43.890625 
L 10.015625 52.203125 
Q 14.9375 54.109375 19.578125 55.046875 
Q 24.21875 56 28.609375 56 
Q 40.484375 56 46.34375 49.84375 
Q 52.203125 43.703125 52.203125 31.203125 
z
" id="DejaVuSans-61"/>
      <path d="M 9.421875 75.984375 
L 18.40625 75.984375 
L 18.40625 0 
L 9.421875 0 
z
" id="DejaVuSans-6c"/>
      <path id="DejaVuSans-20"/>
      <path d="M 44.28125 53.078125 
L 44.28125 44.578125 
Q 40.484375 46.53125 36.375 47.5 
Q 32.28125 48.484375 27.875 48.484375 
Q 21.1875 48.484375 17.84375 46.4375 
Q 14.5 44.390625 14.5 40.28125 
Q 14.5 37.15625 16.890625 35.375 
Q 19.28125 33.59375 26.515625 31.984375 
L 29.59375 31.296875 
Q 39.15625 29.25 43.1875 25.515625 
Q 47.21875 21.78125 47.21875 15.09375 
Q 47.21875 7.46875 41.1875 3.015625 
Q 35.15625 -1.421875 24.609375 -1.421875 
Q 20.21875 -1.421875 15.453125 -0.5625 
Q 10.6875 0.296875 5.421875 2 
L 5.421875 11.28125 
Q 10.40625 8.6875 15.234375 7.390625 
Q 20.0625 6.109375 24.8125 6.109375 
Q 31.15625 6.109375 34.5625 8.28125 
Q 37.984375 10.453125 37.984375 14.40625 
Q 37.984375 18.0625 35.515625 20.015625 
Q 33.0625 21.96875 24.703125 23.78125 
L 21.578125 24.515625 
Q 13.234375 26.265625 9.515625 29.90625 
Q 5.8125 33.546875 5.8125 39.890625 
Q 5.8125 47.609375 11.28125 51.796875 
Q 16.75 56 26.8125 56 
Q 31.78125 56 36.171875 55.265625 
Q 40.578125 54.546875 44.28125 53.078125 
z
" id="DejaVuSans-73"/>
      <path d="M 56.203125 29.59375 
L 56.203125 25.203125 
L 14.890625 25.203125 
Q 15.484375 15.921875 20.484375 11.0625 
Q 25.484375 6.203125 34.421875 6.203125 
Q 39.59375 6.203125 44.453125 7.46875 
Q 49.3125 8.734375 54.109375 11.28125 
L 54.109375 2.78125 
Q 49.265625 0.734375 44.1875 -0.34375 
Q 39.109375 -1.421875 33.890625 -1.421875 
Q 20.796875 -1.421875 13.15625 6.1875 
Q 5.515625 13.8125 5.515625 26.8125 
Q 5.515625 40.234375 12.765625 48.109375 
Q 20.015625 56 32.328125 56 
Q 43.359375 56 49.78125 48.890625 
Q 56.203125 41.796875 56.203125 29.59375 
z
M 47.21875 32.234375 
Q 47.125 39.59375 43.09375 43.984375 
Q 39.0625 48.390625 32.421875 48.390625 
Q 24.90625 48.390625 20.390625 44.140625 
Q 15.875 39.890625 15.1875 32.171875 
z
" id="DejaVuSans-65"/>
      <path d="M 14.796875 27.296875 
Q 14.796875 17.390625 18.875 11.75 
Q 22.953125 6.109375 30.078125 6.109375 
Q 37.203125 6.109375 41.296875 11.75 
Q 45.40625 17.390625 45.40625 27.296875 
Q 45.40625 37.203125 41.296875 42.84375 
Q 37.203125 48.484375 30.078125 48.484375 
Q 22.953125 48.484375 18.875 42.84375 
Q 14.796875 37.203125 14.796875 27.296875 
z
M 45.40625 8.203125 
Q 42.578125 3.328125 38.25 0.953125 
Q 33.9375 -1.421875 27.875 -1.421875 
Q 17.96875 -1.421875 11.734375 6.484375 
Q 5.515625 14.40625 5.515625 27.296875 
Q 5.515625 40.1875 11.734375 48.09375 
Q 17.96875 56 27.875 56 
Q 33.9375 56 38.25 53.625 
Q 42.578125 51.265625 45.40625 46.390625 
L 45.40625 54.6875 
L 54.390625 54.6875 
L 54.390625 -20.796875 
L 45.40625 -20.796875 
z
" id="DejaVuSans-71"/>
      <path d="M 8.5 21.578125 
L 8.5 54.6875 
L 17.484375 54.6875 
L 17.484375 21.921875 
Q 17.484375 14.15625 20.5 10.265625 
Q 23.53125 6.390625 29.59375 6.390625 
Q 36.859375 6.390625 41.078125 11.03125 
Q 45.3125 15.671875 45.3125 23.6875 
L 45.3125 54.6875 
L 54.296875 54.6875 
L 54.296875 0 
L 45.3125 0 
L 45.3125 8.40625 
Q 42.046875 3.421875 37.71875 1 
Q 33.40625 -1.421875 27.6875 -1.421875 
Q 18.265625 -1.421875 13.375 4.4375 
Q 8.5 10.296875 8.5 21.578125 
z
M 31.109375 56 
z
" id="DejaVuSans-75"/>
      <path d="M 54.890625 33.015625 
L 54.890625 0 
L 45.90625 0 
L 45.90625 32.71875 
Q 45.90625 40.484375 42.875 44.328125 
Q 39.84375 48.1875 33.796875 48.1875 
Q 26.515625 48.1875 22.3125 43.546875 
Q 18.109375 38.921875 18.109375 30.90625 
L 18.109375 0 
L 9.078125 0 
L 9.078125 54.6875 
L 18.109375 54.6875 
L 18.109375 46.1875 
Q 21.34375 51.125 25.703125 53.5625 
Q 30.078125 56 35.796875 56 
Q 45.21875 56 50.046875 50.171875 
Q 54.890625 44.34375 54.890625 33.015625 
z
" id="DejaVuSans-6e"/>
      <path d="M 48.78125 52.59375 
L 48.78125 44.1875 
Q 44.96875 46.296875 41.140625 47.34375 
Q 37.3125 48.390625 33.40625 48.390625 
Q 24.65625 48.390625 19.8125 42.84375 
Q 14.984375 37.3125 14.984375 27.296875 
Q 14.984375 17.28125 19.8125 11.734375 
Q 24.65625 6.203125 33.40625 6.203125 
Q 37.3125 6.203125 41.140625 7.25 
Q 44.96875 8.296875 48.78125 10.40625 
L 48.78125 2.09375 
Q 45.015625 0.34375 40.984375 -0.53125 
Q 36.96875 -1.421875 32.421875 -1.421875 
Q 20.0625 -1.421875 12.78125 6.34375 
Q 5.515625 14.109375 5.515625 27.296875 
Q 5.515625 40.671875 12.859375 48.328125 
Q 20.21875 56 33.015625 56 
Q 37.15625 56 41.109375 55.140625 
Q 45.0625 54.296875 48.78125 52.59375 
z
" id="DejaVuSans-63"/>
      <path d="M 45.40625 46.390625 
L 45.40625 75.984375 
L 54.390625 75.984375 
L 54.390625 0 
L 45.40625 0 
L 45.40625 8.203125 
Q 42.578125 3.328125 38.25 0.953125 
Q 33.9375 -1.421875 27.875 -1.421875 
Q 17.96875 -1.421875 11.734375 6.484375 
Q 5.515625 14.40625 5.515625 27.296875 
Q 5.515625 40.1875 11.734375 48.09375 
Q 17.96875 56 27.875 56 
Q 33.9375 56 38.25 53.625 
Q 42.578125 51.265625 45.40625 46.390625 
z
M 14.796875 27.296875 
Q 14.796875 17.390625 18.875 11.75 
Q 22.953125 6.109375 30.078125 6.109375 
Q 37.203125 6.109375 41.296875 11.75 
Q 45.40625 17.390625 45.40625 27.296875 
Q 45.40625 37.203125 41.296875 42.84375 
Q 37.203125 48.484375 30.078125 48.484375 
Q 22.953125 48.484375 18.875 42.84375 
Q 14.796875 37.203125 14.796875 27.296875 
z
" id="DejaVuSans-64"/>
      <path d="M 45.40625 27.984375 
Q 45.40625 37.75 41.375 43.109375 
Q 37.359375 48.484375 30.078125 48.484375 
Q 22.859375 48.484375 18.828125 43.109375 
Q 14.796875 37.75 14.796875 27.984375 
Q 14.796875 18.265625 18.828125 12.890625 
Q 22.859375 7.515625 30.078125 7.515625 
Q 37.359375 7.515625 41.375 12.890625 
Q 45.40625 18.265625 45.40625 27.984375 
z
M 54.390625 6.78125 
Q 54.390625 -7.171875 48.1875 -13.984375 
Q 42 -20.796875 29.203125 -20.796875 
Q 24.46875 -20.796875 20.265625 -20.09375 
Q 16.0625 -19.390625 12.109375 -17.921875 
L 12.109375 -9.1875 
Q 16.0625 -11.328125 19.921875 -12.34375 
Q 23.78125 -13.375 27.78125 -13.375 
Q 36.625 -13.375 41.015625 -8.765625 
Q 45.40625 -4.15625 45.40625 5.171875 
L 45.40625 9.625 
Q 42.625 4.78125 38.28125 2.390625 
Q 33.9375 0 27.875 0 
Q 17.828125 0 11.671875 7.65625 
Q 5.515625 15.328125 5.515625 27.984375 
Q 5.515625 40.671875 11.671875 48.328125 
Q 17.828125 56 27.875 56 
Q 33.9375 56 38.28125 53.609375 
Q 42.625 51.21875 45.40625 46.390625 
L 45.40625 54.6875 
L 54.390625 54.6875 
z
" id="DejaVuSans-67"/>
      <path d="M 52 44.1875 
Q 55.375 50.25 60.0625 53.125 
Q 64.75 56 71.09375 56 
Q 79.640625 56 84.28125 50.015625 
Q 88.921875 44.046875 88.921875 33.015625 
L 88.921875 0 
L 79.890625 0 
L 79.890625 32.71875 
Q 79.890625 40.578125 77.09375 44.375 
Q 74.3125 48.1875 68.609375 48.1875 
Q 61.625 48.1875 57.5625 43.546875 
Q 53.515625 38.921875 53.515625 30.90625 
L 53.515625 0 
L 44.484375 0 
L 44.484375 32.71875 
Q 44.484375 40.625 41.703125 44.40625 
Q 38.921875 48.1875 33.109375 48.1875 
Q 26.21875 48.1875 22.15625 43.53125 
Q 18.109375 38.875 18.109375 30.90625 
L 18.109375 0 
L 9.078125 0 
L 9.078125 54.6875 
L 18.109375 54.6875 
L 18.109375 46.1875 
Q 21.1875 51.21875 25.484375 53.609375 
Q 29.78125 56 35.6875 56 
Q 41.65625 56 45.828125 52.96875 
Q 50 49.953125 52 44.1875 
z
" id="DejaVuSans-6d"/>
     </defs>
     <g transform="translate(14.798438 158.231406)rotate(-90)scale(0.1 -0.1)">
      <use xlink:href="#DejaVuSans-54"/>
      <use x="60.818359" xlink:href="#DejaVuSans-6f"/>
      <use x="122" xlink:href="#DejaVuSans-74"/>
      <use x="161.208984" xlink:href="#DejaVuSans-61"/>
      <use x="222.488281" xlink:href="#DejaVuSans-6c"/>
      <use x="250.271484" xlink:href="#DejaVuSans-20"/>
      <use x="282.058594" xlink:href="#DejaVuSans-73"/>
      <use x="334.158203" xlink:href="#DejaVuSans-65"/>
      <use x="395.681641" xlink:href="#DejaVuSans-71"/>
      <use x="459.158203" xlink:href="#DejaVuSans-75"/>
      <use x="522.537109" xlink:href="#DejaVuSans-65"/>
      <use x="584.060547" xlink:href="#DejaVuSans-6e"/>
      <use x="647.439453" xlink:href="#DejaVuSans-63"/>
      <use x="702.419922" xlink:href="#DejaVuSans-65"/>
      <use x="763.943359" xlink:href="#DejaVuSans-64"/>
      <use x="827.419922" xlink:href="#DejaVuSans-20"/>
      <use x="859.207031" xlink:href="#DejaVuSans-67"/>
      <use x="922.683594" xlink:href="#DejaVuSans-65"/>
      <use x="984.207031" xlink:href="#DejaVuSans-6e"/>
      <use x="1047.585938" xlink:href="#DejaVuSans-6f"/>
      <use x="1108.767578" xlink:href="#DejaVuSans-6d"/>
      <use x="1206.179688" xlink:href="#DejaVuSans-65"/>
      <use x="1267.703125" xlink:href="#DejaVuSans-73"/>
     </g>
    </g>
   </g>
   <g id="line2d_16">
    <path clip-path="url(#p1ecc18a3fe)" d="M 240.851113 166.367273 
L 307.378684 164.75581 
L 320.684198 163.144348 
L 347.295226 161.532885 
L 360.60074 159.921423 
L 373.906255 158.30996 
L 373.906255 156.698498 
L 373.906255 155.087036 
L 400.517283 153.475573 
L 427.128311 151.864111 
L 453.73934 150.252648 
L 453.73934 148.641186 
L 467.044854 147.029723 
L 467.044854 145.418261 
L 480.350368 143.806798 
L 493.655882 142.195336 
L 493.655882 140.583874 
L 493.655882 138.972411 
L 506.961396 137.360949 
L 506.961396 135.749486 
L 506.961396 134.138024 
L 546.877939 132.526561 
L 546.877939 130.915099 
L 560.183453 129.303636 
L 560.183453 127.692174 
L 560.183453 126.080711 
L 573.488967 124.469249 
L 586.794481 122.857787 
L 586.794481 121.246324 
L 586.794481 119.634862 
L 626.711024 118.023399 
L 626.711024 116.411937 
L 653.322052 114.800474 
L 653.322052 113.189012 
L 666.627566 111.577549 
L 733.155137 109.966087 
" style="fill:none;stroke:#eb261f;stroke-linecap:square;stroke-width:1.5;"/>
    <defs>
     <path d="M 0 3 
C 0.795609 3 1.55874 2.683901 2.12132 2.12132 
C 2.683901 1.55874 3 0.795609 3 0 
C 3 -0.795609 2.683901 -1.55874 2.12132 -2.12132 
C 1.55874 -2.683901 0.795609 -3 0 -3 
C -0.795609 -3 -1.55874 -2.683901 -2.12132 -2.12132 
C -2.683901 -1.55874 -3 -0.795609 -3 0 
C -3 0.795609 -2.683901 1.55874 -2.12132 2.12132 
C -1.55874 2.683901 -0.795609 3 0 3 
z
" id="m3304912fa0" style="stroke:#eb261f;"/>
    </defs>
    <g clip-path="url(#p1ecc18a3fe)">
     <use style="fill:#eb261f;stroke:#eb261f;" x="240.851113" xlink:href="#m3304912fa0" y="166.367273"/>
     <use style="fill:#eb261f;stroke:#eb261f;" x="307.378684" xlink:href="#m3304912fa0" y="164.75581"/>
     <use style="fill:#eb261f;stroke:#eb261f;" x="320.684198" xlink:href="#m3304912fa0" y="163.144348"/>
     <use style="fill:#eb261f;stroke:#eb261f;" x="347.295226" xlink:href="#m3304912fa0" y="161.532885"/>
     <use style="fill:#eb261f;stroke:#eb261f;" x="360.60074" xlink:href="#m3304912fa0" y="159.921423"/>
     <use style="fill:#eb261f;stroke:#eb261f;" x="373.906255" xlink:href="#m3304912fa0" y="158.30996"/>
     <use style="fill:#eb261f;stroke:#eb261f;" x="373.906255" xlink:href="#m3304912fa0" y="156.698498"/>
     <use style="fill:#eb261f;stroke:#eb261f;" x="373.906255" xlink:href="#m3304912fa0" y="155.087036"/>
     <use style="fill:#eb261f;stroke:#eb261f;" x="400.517283" xlink:href="#m3304912fa0" y="153.475573"/>
     <use style="fill:#eb261f;stroke:#eb261f;" x="427.128311" xlink:href="#m3304912fa0" y="151.864111"/>
     <use style="fill:#eb261f;stroke:#eb261f;" x="453.73934" xlink:href="#m3304912fa0" y="150.252648"/>
     <use style="fill:#eb261f;stroke:#eb261f;" x="453.73934" xlink:href="#m3304912fa0" y="148.641186"/>
     <use style="fill:#eb261f;stroke:#eb261f;" x="467.044854" xlink:href="#m3304912fa0" y="147.029723"/>
     <use style="fill:#eb261f;stroke:#eb261f;" x="467.044854" xlink:href="#m3304912fa0" y="145.418261"/>
     <use style="fill:#eb261f;stroke:#eb261f;" x="480.350368" xlink:href="#m3304912fa0" y="143.806798"/>
     <use style="fill:#eb261f;stroke:#eb261f;" x="493.655882" xlink:href="#m3304912fa0" y="142.195336"/>
     <use style="fill:#eb261f;stroke:#eb261f;" x="493.655882" xlink:href="#m3304912fa0" y="140.583874"/>
     <use style="fill:#eb261f;stroke:#eb261f;" x="493.655882" xlink:href="#m3304912fa0" y="138.972411"/>
     <use style="fill:#eb261f;stroke:#eb261f;" x="506.961396" xlink:href="#m3304912fa0" y="137.360949"/>
     <use style="fill:#eb261f;stroke:#eb261f;" x="506.961396" xlink:href="#m3304912fa0" y="135.749486"/>
     <use style="fill:#eb261f;stroke:#eb261f;" x="506.961396" xlink:href="#m3304912fa0" y="134.138024"/>
     <use style="fill:#eb261f;stroke:#eb261f;" x="546.877939" xlink:href="#m3304912fa0" y="132.526561"/>
     <use style="fill:#eb261f;stroke:#eb261f;" x="546.877939" xlink:href="#m3304912fa0" y="130.915099"/>
     <use style="fill:#eb261f;stroke:#eb261f;" x="560.183453" xlink:href="#m3304912fa0" y="129.303636"/>
     <use style="fill:#eb261f;stroke:#eb261f;" x="560.183453" xlink:href="#m3304912fa0" y="127.692174"/>
     <use style="fill:#eb261f;stroke:#eb261f;" x="560.183453" xlink:href="#m3304912fa0" y="126.080711"/>
     <use style="fill:#eb261f;stroke:#eb261f;" x="573.488967" xlink:href="#m3304912fa0" y="124.469249"/>
     <use style="fill:#eb261f;stroke:#eb261f;" x="586.794481" xlink:href="#m3304912fa0" y="122.857787"/>
     <use style="fill:#eb261f;stroke:#eb261f;" x="586.794481" xlink:href="#m3304912fa0" y="121.246324"/>
     <use style="fill:#eb261f;stroke:#eb261f;" x="586.794481" xlink:href="#m3304912fa0" y="119.634862"/>
     <use style="fill:#eb261f;stroke:#eb261f;" x="626.711024" xlink:href="#m3304912fa0" y="118.023399"/>
     <use style="fill:#eb261f;stroke:#eb261f;" x="626.711024" xlink:href="#m3304912fa0" y="116.411937"/>
     <use style="fill:#eb261f;stroke:#eb261f;" x="653.322052" xlink:href="#m3304912fa0" y="114.800474"/>
     <use style="fill:#eb261f;stroke:#eb261f;" x="653.322052" xlink:href="#m3304912fa0" y="113.189012"/>
     <use style="fill:#eb261f;stroke:#eb261f;" x="666.627566" xlink:href="#m3304912fa0" y="111.577549"/>
     <use style="fill:#eb261f;stroke:#eb261f;" x="733.155137" xlink:href="#m3304912fa0" y="109.966087"/>
    </g>
   </g>
   <g id="line2d_17">
    <path clip-path="url(#p1ecc18a3fe)" d="M 81.184943 166.367273 
L 81.184943 164.75581 
L 107.795971 163.144348 
L 161.018028 161.532885 
L 161.018028 159.921423 
L 161.018028 158.30996 
L 161.018028 156.698498 
L 161.018028 155.087036 
L 161.018028 153.475573 
L 161.018028 151.864111 
L 161.018028 150.252648 
L 161.018028 148.641186 
L 161.018028 147.029723 
L 161.018028 145.418261 
L 187.629056 143.806798 
L 187.629056 142.195336 
L 187.629056 140.583874 
L 187.629056 138.972411 
L 187.629056 137.360949 
L 187.629056 135.749486 
L 200.934571 134.138024 
L 200.934571 132.526561 
L 280.767656 130.915099 
L 280.767656 129.303636 
L 320.684198 127.692174 
L 347.295226 126.080711 
L 347.295226 124.469249 
L 373.906255 122.857787 
L 387.211769 121.246324 
L 387.211769 119.634862 
L 400.517283 118.023399 
L 400.517283 116.411937 
L 413.822797 114.800474 
L 413.822797 113.189012 
L 427.128311 111.577549 
L 427.128311 109.966087 
L 440.433825 108.354625 
L 453.73934 106.743162 
L 467.044854 105.1317 
L 467.044854 103.520237 
L 467.044854 101.908775 
L 467.044854 100.297312 
L 467.044854 98.68585 
L 467.044854 97.074387 
L 467.044854 95.462925 
L 467.044854 93.851462 
L 480.350368 92.24 
L 480.350368 90.628538 
L 480.350368 89.017075 
L 480.350368 87.405613 
L 480.350368 85.79415 
L 480.350368 84.182688 
L 480.350368 82.571225 
L 480.350368 80.959763 
L 480.350368 79.3483 
L 493.655882 77.736838 
L 506.961396 76.125375 
L 506.961396 74.513913 
L 506.961396 72.902451 
L 506.961396 71.290988 
L 506.961396 69.679526 
L 506.961396 68.068063 
L 533.572425 66.456601 
L 533.572425 64.845138 
L 533.572425 63.233676 
L 546.877939 61.622213 
L 546.877939 60.010751 
L 546.877939 58.399289 
L 546.877939 56.787826 
L 560.183453 55.176364 
L 560.183453 53.564901 
L 560.183453 51.953439 
L 560.183453 50.341976 
L 560.183453 48.730514 
L 560.183453 47.119051 
L 560.183453 45.507589 
L 560.183453 43.896126 
L 573.488967 42.284664 
L 586.794481 40.673202 
L 586.794481 39.061739 
L 600.099995 37.450277 
L 600.099995 35.838814 
L 613.405509 34.227352 
L 613.405509 32.615889 
L 626.711024 31.004427 
L 640.016538 29.392964 
L 640.016538 27.781502 
L 653.322052 26.17004 
L 666.627566 24.558577 
L 706.544109 22.947115 
L 706.544109 21.335652 
L 719.849623 19.72419 
L 892.821307 18.112727 
" style="fill:none;stroke:#1ca4fc;stroke-linecap:square;stroke-width:1.5;"/>
    <defs>
     <path d="M 0 3 
C 0.795609 3 1.55874 2.683901 2.12132 2.12132 
C 2.683901 1.55874 3 0.795609 3 0 
C 3 -0.795609 2.683901 -1.55874 2.12132 -2.12132 
C 1.55874 -2.683901 0.795609 -3 0 -3 
C -0.795609 -3 -1.55874 -2.683901 -2.12132 -2.12132 
C -2.683901 -1.55874 -3 -0.795609 -3 0 
C -3 0.795609 -2.683901 1.55874 -2.12132 2.12132 
C -1.55874 2.683901 -0.795609 3 0 3 
z
" id="mc692894b35" style="stroke:#1ca4fc;"/>
    </defs>
    <g clip-path="url(#p1ecc18a3fe)">
     <use style="fill:#1ca4fc;stroke:#1ca4fc;" x="81.184943" xlink:href="#mc692894b35" y="166.367273"/>
     <use style="fill:#1ca4fc;stroke:#1ca4fc;" x="81.184943" xlink:href="#mc692894b35" y="164.75581"/>
     <use style="fill:#1ca4fc;stroke:#1ca4fc;" x="107.795971" xlink:href="#mc692894b35" y="163.144348"/>
     <use style="fill:#1ca4fc;stroke:#1ca4fc;" x="161.018028" xlink:href="#mc692894b35" y="161.532885"/>
     <use style="fill:#1ca4fc;stroke:#1ca4fc;" x="161.018028" xlink:href="#mc692894b35" y="159.921423"/>
     <use style="fill:#1ca4fc;stroke:#1ca4fc;" x="161.018028" xlink:href="#mc692894b35" y="158.30996"/>
     <use style="fill:#1ca4fc;stroke:#1ca4fc;" x="161.018028" xlink:href="#mc692894b35" y="156.698498"/>
     <use style="fill:#1ca4fc;stroke:#1ca4fc;" x="161.018028" xlink:href="#mc692894b35" y="155.087036"/>
     <use style="fill:#1ca4fc;stroke:#1ca4fc;" x="161.018028" xlink:href="#mc692894b35" y="153.475573"/>
     <use style="fill:#1ca4fc;stroke:#1ca4fc;" x="161.018028" xlink:href="#mc692894b35" y="151.864111"/>
     <use style="fill:#1ca4fc;stroke:#1ca4fc;" x="161.018028" xlink:href="#mc692894b35" y="150.252648"/>
     <use style="fill:#1ca4fc;stroke:#1ca4fc;" x="161.018028" xlink:href="#mc692894b35" y="148.641186"/>
     <use style="fill:#1ca4fc;stroke:#1ca4fc;" x="161.018028" xlink:href="#mc692894b35" y="147.029723"/>
     <use style="fill:#1ca4fc;stroke:#1ca4fc;" x="161.018028" xlink:href="#mc692894b35" y="145.418261"/>
     <use style="fill:#1ca4fc;stroke:#1ca4fc;" x="187.629056" xlink:href="#mc692894b35" y="143.806798"/>
     <use style="fill:#1ca4fc;stroke:#1ca4fc;" x="187.629056" xlink:href="#mc692894b35" y="142.195336"/>
     <use style="fill:#1ca4fc;stroke:#1ca4fc;" x="187.629056" xlink:href="#mc692894b35" y="140.583874"/>
     <use style="fill:#1ca4fc;stroke:#1ca4fc;" x="187.629056" xlink:href="#mc692894b35" y="138.972411"/>
     <use style="fill:#1ca4fc;stroke:#1ca4fc;" x="187.629056" xlink:href="#mc692894b35" y="137.360949"/>
     <use style="fill:#1ca4fc;stroke:#1ca4fc;" x="187.629056" xlink:href="#mc692894b35" y="135.749486"/>
     <use style="fill:#1ca4fc;stroke:#1ca4fc;" x="200.934571" xlink:href="#mc692894b35" y="134.138024"/>
     <use style="fill:#1ca4fc;stroke:#1ca4fc;" x="200.934571" xlink:href="#mc692894b35" y="132.526561"/>
     <use style="fill:#1ca4fc;stroke:#1ca4fc;" x="280.767656" xlink:href="#mc692894b35" y="130.915099"/>
     <use style="fill:#1ca4fc;stroke:#1ca4fc;" x="280.767656" xlink:href="#mc692894b35" y="129.303636"/>
     <use style="fill:#1ca4fc;stroke:#1ca4fc;" x="320.684198" xlink:href="#mc692894b35" y="127.692174"/>
     <use style="fill:#1ca4fc;stroke:#1ca4fc;" x="347.295226" xlink:href="#mc692894b35" y="126.080711"/>
     <use style="fill:#1ca4fc;stroke:#1ca4fc;" x="347.295226" xlink:href="#mc692894b35" y="124.469249"/>
     <use style="fill:#1ca4fc;stroke:#1ca4fc;" x="373.906255" xlink:href="#mc692894b35" y="122.857787"/>
     <use style="fill:#1ca4fc;stroke:#1ca4fc;" x="387.211769" xlink:href="#mc692894b35" y="121.246324"/>
     <use style="fill:#1ca4fc;stroke:#1ca4fc;" x="387.211769" xlink:href="#mc692894b35" y="119.634862"/>
     <use style="fill:#1ca4fc;stroke:#1ca4fc;" x="400.517283" xlink:href="#mc692894b35" y="118.023399"/>
     <use style="fill:#1ca4fc;stroke:#1ca4fc;" x="400.517283" xlink:href="#mc692894b35" y="116.411937"/>
     <use style="fill:#1ca4fc;stroke:#1ca4fc;" x="413.822797" xlink:href="#mc692894b35" y="114.800474"/>
     <use style="fill:#1ca4fc;stroke:#1ca4fc;" x="413.822797" xlink:href="#mc692894b35" y="113.189012"/>
     <use style="fill:#1ca4fc;stroke:#1ca4fc;" x="427.128311" xlink:href="#mc692894b35" y="111.577549"/>
     <use style="fill:#1ca4fc;stroke:#1ca4fc;" x="427.128311" xlink:href="#mc692894b35" y="109.966087"/>
     <use style="fill:#1ca4fc;stroke:#1ca4fc;" x="440.433825" xlink:href="#mc692894b35" y="108.354625"/>
     <use style="fill:#1ca4fc;stroke:#1ca4fc;" x="453.73934" xlink:href="#mc692894b35" y="106.743162"/>
     <use style="fill:#1ca4fc;stroke:#1ca4fc;" x="467.044854" xlink:href="#mc692894b35" y="105.1317"/>
     <use style="fill:#1ca4fc;stroke:#1ca4fc;" x="467.044854" xlink:href="#mc692894b35" y="103.520237"/>
     <use style="fill:#1ca4fc;stroke:#1ca4fc;" x="467.044854" xlink:href="#mc692894b35" y="101.908775"/>
     <use style="fill:#1ca4fc;stroke:#1ca4fc;" x="467.044854" xlink:href="#mc692894b35" y="100.297312"/>
     <use style="fill:#1ca4fc;stroke:#1ca4fc;" x="467.044854" xlink:href="#mc692894b35" y="98.68585"/>
     <use style="fill:#1ca4fc;stroke:#1ca4fc;" x="467.044854" xlink:href="#mc692894b35" y="97.074387"/>
     <use style="fill:#1ca4fc;stroke:#1ca4fc;" x="467.044854" xlink:href="#mc692894b35" y="95.462925"/>
     <use style="fill:#1ca4fc;stroke:#1ca4fc;" x="467.044854" xlink:href="#mc692894b35" y="93.851462"/>
     <use style="fill:#1ca4fc;stroke:#1ca4fc;" x="480.350368" xlink:href="#mc692894b35" y="92.24"/>
     <use style="fill:#1ca4fc;stroke:#1ca4fc;" x="480.350368" xlink:href="#mc692894b35" y="90.628538"/>
     <use style="fill:#1ca4fc;stroke:#1ca4fc;" x="480.350368" xlink:href="#mc692894b35" y="89.017075"/>
     <use style="fill:#1ca4fc;stroke:#1ca4fc;" x="480.350368" xlink:href="#mc692894b35" y="87.405613"/>
     <use style="fill:#1ca4fc;stroke:#1ca4fc;" x="480.350368" xlink:href="#mc692894b35" y="85.79415"/>
     <use style="fill:#1ca4fc;stroke:#1ca4fc;" x="480.350368" xlink:href="#mc692894b35" y="84.182688"/>
     <use style="fill:#1ca4fc;stroke:#1ca4fc;" x="480.350368" xlink:href="#mc692894b35" y="82.571225"/>
     <use style="fill:#1ca4fc;stroke:#1ca4fc;" x="480.350368" xlink:href="#mc692894b35" y="80.959763"/>
     <use style="fill:#1ca4fc;stroke:#1ca4fc;" x="480.350368" xlink:href="#mc692894b35" y="79.3483"/>
     <use style="fill:#1ca4fc;stroke:#1ca4fc;" x="493.655882" xlink:href="#mc692894b35" y="77.736838"/>
     <use style="fill:#1ca4fc;stroke:#1ca4fc;" x="506.961396" xlink:href="#mc692894b35" y="76.125375"/>
     <use style="fill:#1ca4fc;stroke:#1ca4fc;" x="506.961396" xlink:href="#mc692894b35" y="74.513913"/>
     <use style="fill:#1ca4fc;stroke:#1ca4fc;" x="506.961396" xlink:href="#mc692894b35" y="72.902451"/>
     <use style="fill:#1ca4fc;stroke:#1ca4fc;" x="506.961396" xlink:href="#mc692894b35" y="71.290988"/>
     <use style="fill:#1ca4fc;stroke:#1ca4fc;" x="506.961396" xlink:href="#mc692894b35" y="69.679526"/>
     <use style="fill:#1ca4fc;stroke:#1ca4fc;" x="506.961396" xlink:href="#mc692894b35" y="68.068063"/>
     <use style="fill:#1ca4fc;stroke:#1ca4fc;" x="533.572425" xlink:href="#mc692894b35" y="66.456601"/>
     <use style="fill:#1ca4fc;stroke:#1ca4fc;" x="533.572425" xlink:href="#mc692894b35" y="64.845138"/>
     <use style="fill:#1ca4fc;stroke:#1ca4fc;" x="533.572425" xlink:href="#mc692894b35" y="63.233676"/>
     <use style="fill:#1ca4fc;stroke:#1ca4fc;" x="546.877939" xlink:href="#mc692894b35" y="61.622213"/>
     <use style="fill:#1ca4fc;stroke:#1ca4fc;" x="546.877939" xlink:href="#mc692894b35" y="60.010751"/>
     <use style="fill:#1ca4fc;stroke:#1ca4fc;" x="546.877939" xlink:href="#mc692894b35" y="58.399289"/>
     <use style="fill:#1ca4fc;stroke:#1ca4fc;" x="546.877939" xlink:href="#mc692894b35" y="56.787826"/>
     <use style="fill:#1ca4fc;stroke:#1ca4fc;" x="560.183453" xlink:href="#mc692894b35" y="55.176364"/>
     <use style="fill:#1ca4fc;stroke:#1ca4fc;" x="560.183453" xlink:href="#mc692894b35" y="53.564901"/>
     <use style="fill:#1ca4fc;stroke:#1ca4fc;" x="560.183453" xlink:href="#mc692894b35" y="51.953439"/>
     <use style="fill:#1ca4fc;stroke:#1ca4fc;" x="560.183453" xlink:href="#mc692894b35" y="50.341976"/>
     <use style="fill:#1ca4fc;stroke:#1ca4fc;" x="560.183453" xlink:href="#mc692894b35" y="48.730514"/>
     <use style="fill:#1ca4fc;stroke:#1ca4fc;" x="560.183453" xlink:href="#mc692894b35" y="47.119051"/>
     <use style="fill:#1ca4fc;stroke:#1ca4fc;" x="560.183453" xlink:href="#mc692894b35" y="45.507589"/>
     <use style="fill:#1ca4fc;stroke:#1ca4fc;" x="560.183453" xlink:href="#mc692894b35" y="43.896126"/>
     <use style="fill:#1ca4fc;stroke:#1ca4fc;" x="573.488967" xlink:href="#mc692894b35" y="42.284664"/>
     <use style="fill:#1ca4fc;stroke:#1ca4fc;" x="586.794481" xlink:href="#mc692894b35" y="40.673202"/>
     <use style="fill:#1ca4fc;stroke:#1ca4fc;" x="586.794481" xlink:href="#mc692894b35" y="39.061739"/>
     <use style="fill:#1ca4fc;stroke:#1ca4fc;" x="600.099995" xlink:href="#mc692894b35" y="37.450277"/>
     <use style="fill:#1ca4fc;stroke:#1ca4fc;" x="600.099995" xlink:href="#mc692894b35" y="35.838814"/>
     <use style="fill:#1ca4fc;stroke:#1ca4fc;" x="613.405509" xlink:href="#mc692894b35" y="34.227352"/>
     <use style="fill:#1ca4fc;stroke:#1ca4fc;" x="613.405509" xlink:href="#mc692894b35" y="32.615889"/>
     <use style="fill:#1ca4fc;stroke:#1ca4fc;" x="626.711024" xlink:href="#mc692894b35" y="31.004427"/>
     <use style="fill:#1ca4fc;stroke:#1ca4fc;" x="640.016538" xlink:href="#mc692894b35" y="29.392964"/>
     <use style="fill:#1ca4fc;stroke:#1ca4fc;" x="640.016538" xlink:href="#mc692894b35" y="27.781502"/>
     <use style="fill:#1ca4fc;stroke:#1ca4fc;" x="653.322052" xlink:href="#mc692894b35" y="26.17004"/>
     <use style="fill:#1ca4fc;stroke:#1ca4fc;" x="666.627566" xlink:href="#mc692894b35" y="24.558577"/>
     <use style="fill:#1ca4fc;stroke:#1ca4fc;" x="706.544109" xlink:href="#mc692894b35" y="22.947115"/>
     <use style="fill:#1ca4fc;stroke:#1ca4fc;" x="706.544109" xlink:href="#mc692894b35" y="21.335652"/>
     <use style="fill:#1ca4fc;stroke:#1ca4fc;" x="719.849623" xlink:href="#mc692894b35" y="19.72419"/>
     <use style="fill:#1ca4fc;stroke:#1ca4fc;" x="892.821307" xlink:href="#mc692894b35" y="18.112727"/>
    </g>
   </g>
   <g id="patch_3">
    <path d="M 40.603125 173.78 
L 40.603125 10.7 
" style="fill:none;stroke:#000000;stroke-linecap:square;stroke-linejoin:miter;stroke-width:0.8;"/>
   </g>
   <g id="patch_4">
    <path d="M 933.403125 173.78 
L 933.403125 10.7 
" style="fill:none;stroke:#000000;stroke-linecap:square;stroke-linejoin:miter;stroke-width:0.8;"/>
   </g>
   <g id="patch_5">
    <path d="M 40.603125 173.78 
L 933.403125 173.78 
" style="fill:none;stroke:#000000;stroke-linecap:square;stroke-linejoin:miter;stroke-width:0.8;"/>
   </g>
   <g id="patch_6">
    <path d="M 40.603125 10.7 
L 933.403125 10.7 
" style="fill:none;stroke:#000000;stroke-linecap:square;stroke-linejoin:miter;stroke-width:0.8;"/>
   </g>
   <g id="legend_1">
    <g id="patch_7">
     <path d="M 47.603125 48.05625 
L 93.714063 48.05625 
Q 95.714063 48.05625 95.714063 46.05625 
L 95.714063 17.7 
Q 95.714063 15.7 93.714063 15.7 
L 47.603125 15.7 
Q 45.603125 15.7 45.603125 17.7 
L 45.603125 46.05625 
Q 45.603125 48.05625 47.603125 48.05625 
z
" style="fill:#ffffff;opacity:0.8;stroke:#cccccc;stroke-linejoin:miter;"/>
    </g>
    <g id="line2d_18">
     <path d="M 49.603125 23.798438 
L 69.603125 23.798438 
" style="fill:none;stroke:#eb261f;stroke-linecap:square;stroke-width:1.5;"/>
    </g>
    <g id="line2d_19">
     <g>
      <use style="fill:#eb261f;stroke:#eb261f;" x="59.603125" xlink:href="#m3304912fa0" y="23.798438"/>
     </g>
    </g>
    <g id="text_17">
     <!-- G1 -->
     <defs>
      <path d="M 59.515625 10.40625 
L 59.515625 29.984375 
L 43.40625 29.984375 
L 43.40625 38.09375 
L 69.28125 38.09375 
L 69.28125 6.78125 
Q 63.578125 2.734375 56.6875 0.65625 
Q 49.8125 -1.421875 42 -1.421875 
Q 24.90625 -1.421875 15.25 8.5625 
Q 5.609375 18.5625 5.609375 36.375 
Q 5.609375 54.25 15.25 64.234375 
Q 24.90625 74.21875 42 74.21875 
Q 49.125 74.21875 55.546875 72.453125 
Q 61.96875 70.703125 67.390625 67.28125 
L 67.390625 56.78125 
Q 61.921875 61.421875 55.765625 63.765625 
Q 49.609375 66.109375 42.828125 66.109375 
Q 29.4375 66.109375 22.71875 58.640625 
Q 16.015625 51.171875 16.015625 36.375 
Q 16.015625 21.625 22.71875 14.15625 
Q 29.4375 6.6875 42.828125 6.6875 
Q 48.046875 6.6875 52.140625 7.59375 
Q 56.25 8.5 59.515625 10.40625 
z
" id="DejaVuSans-47"/>
     </defs>
     <g transform="translate(77.603125 27.298438)scale(0.1 -0.1)">
      <use xlink:href="#DejaVuSans-47"/>
      <use x="77.490234" xlink:href="#DejaVuSans-31"/>
     </g>
    </g>
    <g id="line2d_20">
     <path d="M 49.603125 38.476562 
L 69.603125 38.476562 
" style="fill:none;stroke:#1ca4fc;stroke-linecap:square;stroke-width:1.5;"/>
    </g>
    <g id="line2d_21">
     <g>
      <use style="fill:#1ca4fc;stroke:#1ca4fc;" x="59.603125" xlink:href="#mc692894b35" y="38.476562"/>
     </g>
    </g>
    <g id="text_18">
     <!-- G2 -->
     <g transform="translate(77.603125 41.976562)scale(0.1 -0.1)">
      <use xlink:href="#DejaVuSans-47"/>
      <use x="77.490234" xlink:href="#DejaVuSans-32"/>
     </g>
    </g>
   </g>
  </g>
 </g>
 <defs>
  <clipPath id="p1ecc18a3fe">
   <rect height="163.08" width="892.8" x="40.603125" y="10.7"/>
  </clipPath>
 </defs>
</svg>
