<?xml version="1.0" encoding="utf-8" standalone="no"?>
<!DOCTYPE svg PUBLIC "-//W3C//DTD SVG 1.1//EN"
  "http://www.w3.org/Graphics/SVG/1.1/DTD/svg11.dtd">
<!-- Created with matplotlib (http://matplotlib.org/) -->
<svg height="197.658125pt" version="1.1" viewBox="0 0 942.012023 197.658125" width="942.012023pt" xmlns="http://www.w3.org/2000/svg" xmlns:xlink="http://www.w3.org/1999/xlink">
 <defs>
  <style type="text/css">
*{stroke-linecap:butt;stroke-linejoin:round;}
  </style>
 </defs>
 <g id="figure_1">
  <g id="patch_1">
   <path d="M 0 197.658125 
L 942.012023 197.658125 
L 942.012023 0 
L 0 0 
z
" style="fill:#ffffff;"/>
  </g>
  <g id="axes_1">
   <g id="patch_2">
    <path d="M 26.925 173.78 
L 919.725 173.78 
L 919.725 10.7 
L 26.925 10.7 
z
" style="fill:#ffffff;"/>
   </g>
   <g id="matplotlib.axis_1">
    <g id="xtick_1">
     <g id="line2d_1">
      <defs>
       <path d="M 0 0 
L 0 3.5 
" id="md3e3580101" style="stroke:#000000;stroke-width:0.8;"/>
      </defs>
      <g>
       <use style="stroke:#000000;stroke-width:0.8;" x="67.506818" xlink:href="#md3e3580101" y="173.78"/>
      </g>
     </g>
     <g id="text_1">
      <!-- 2019-12-24 -->
      <defs>
       <path d="M 19.1875 8.296875 
L 53.609375 8.296875 
L 53.609375 0 
L 7.328125 0 
L 7.328125 8.296875 
Q 12.9375 14.109375 22.625 23.890625 
Q 32.328125 33.6875 34.8125 36.53125 
Q 39.546875 41.84375 41.421875 45.53125 
Q 43.3125 49.21875 43.3125 52.78125 
Q 43.3125 58.59375 39.234375 62.25 
Q 35.15625 65.921875 28.609375 65.921875 
Q 23.96875 65.921875 18.8125 64.3125 
Q 13.671875 62.703125 7.8125 59.421875 
L 7.8125 69.390625 
Q 13.765625 71.78125 18.9375 73 
Q 24.125 74.21875 28.421875 74.21875 
Q 39.75 74.21875 46.484375 68.546875 
Q 53.21875 62.890625 53.21875 53.421875 
Q 53.21875 48.921875 51.53125 44.890625 
Q 49.859375 40.875 45.40625 35.40625 
Q 44.1875 33.984375 37.640625 27.21875 
Q 31.109375 20.453125 19.1875 8.296875 
z
" id="DejaVuSans-32"/>
       <path d="M 31.78125 66.40625 
Q 24.171875 66.40625 20.328125 58.90625 
Q 16.5 51.421875 16.5 36.375 
Q 16.5 21.390625 20.328125 13.890625 
Q 24.171875 6.390625 31.78125 6.390625 
Q 39.453125 6.390625 43.28125 13.890625 
Q 47.125 21.390625 47.125 36.375 
Q 47.125 51.421875 43.28125 58.90625 
Q 39.453125 66.40625 31.78125 66.40625 
z
M 31.78125 74.21875 
Q 44.046875 74.21875 50.515625 64.515625 
Q 56.984375 54.828125 56.984375 36.375 
Q 56.984375 17.96875 50.515625 8.265625 
Q 44.046875 -1.421875 31.78125 -1.421875 
Q 19.53125 -1.421875 13.0625 8.265625 
Q 6.59375 17.96875 6.59375 36.375 
Q 6.59375 54.828125 13.0625 64.515625 
Q 19.53125 74.21875 31.78125 74.21875 
z
" id="DejaVuSans-30"/>
       <path d="M 12.40625 8.296875 
L 28.515625 8.296875 
L 28.515625 63.921875 
L 10.984375 60.40625 
L 10.984375 69.390625 
L 28.421875 72.90625 
L 38.28125 72.90625 
L 38.28125 8.296875 
L 54.390625 8.296875 
L 54.390625 0 
L 12.40625 0 
z
" id="DejaVuSans-31"/>
       <path d="M 10.984375 1.515625 
L 10.984375 10.5 
Q 14.703125 8.734375 18.5 7.8125 
Q 22.3125 6.890625 25.984375 6.890625 
Q 35.75 6.890625 40.890625 13.453125 
Q 46.046875 20.015625 46.78125 33.40625 
Q 43.953125 29.203125 39.59375 26.953125 
Q 35.25 24.703125 29.984375 24.703125 
Q 19.046875 24.703125 12.671875 31.3125 
Q 6.296875 37.9375 6.296875 49.421875 
Q 6.296875 60.640625 12.9375 67.421875 
Q 19.578125 74.21875 30.609375 74.21875 
Q 43.265625 74.21875 49.921875 64.515625 
Q 56.59375 54.828125 56.59375 36.375 
Q 56.59375 19.140625 48.40625 8.859375 
Q 40.234375 -1.421875 26.421875 -1.421875 
Q 22.703125 -1.421875 18.890625 -0.6875 
Q 15.09375 0.046875 10.984375 1.515625 
z
M 30.609375 32.421875 
Q 37.25 32.421875 41.125 36.953125 
Q 45.015625 41.5 45.015625 49.421875 
Q 45.015625 57.28125 41.125 61.84375 
Q 37.25 66.40625 30.609375 66.40625 
Q 23.96875 66.40625 20.09375 61.84375 
Q 16.21875 57.28125 16.21875 49.421875 
Q 16.21875 41.5 20.09375 36.953125 
Q 23.96875 32.421875 30.609375 32.421875 
z
" id="DejaVuSans-39"/>
       <path d="M 4.890625 31.390625 
L 31.203125 31.390625 
L 31.203125 23.390625 
L 4.890625 23.390625 
z
" id="DejaVuSans-2d"/>
       <path d="M 37.796875 64.3125 
L 12.890625 25.390625 
L 37.796875 25.390625 
z
M 35.203125 72.90625 
L 47.609375 72.90625 
L 47.609375 25.390625 
L 58.015625 25.390625 
L 58.015625 17.1875 
L 47.609375 17.1875 
L 47.609375 0 
L 37.796875 0 
L 37.796875 17.1875 
L 4.890625 17.1875 
L 4.890625 26.703125 
z
" id="DejaVuSans-34"/>
      </defs>
      <g transform="translate(38.449006 188.378438)scale(0.1 -0.1)">
       <use xlink:href="#DejaVuSans-32"/>
       <use x="63.623047" xlink:href="#DejaVuSans-30"/>
       <use x="127.246094" xlink:href="#DejaVuSans-31"/>
       <use x="190.869141" xlink:href="#DejaVuSans-39"/>
       <use x="254.492188" xlink:href="#DejaVuSans-2d"/>
       <use x="290.576172" xlink:href="#DejaVuSans-31"/>
       <use x="354.199219" xlink:href="#DejaVuSans-32"/>
       <use x="417.822266" xlink:href="#DejaVuSans-2d"/>
       <use x="453.90625" xlink:href="#DejaVuSans-32"/>
       <use x="517.529297" xlink:href="#DejaVuSans-34"/>
      </g>
     </g>
    </g>
    <g id="xtick_2">
     <g id="line2d_2">
      <g>
       <use style="stroke:#000000;stroke-width:0.8;" x="160.645417" xlink:href="#md3e3580101" y="173.78"/>
      </g>
     </g>
     <g id="text_2">
      <!-- 2019-12-31 -->
      <defs>
       <path d="M 40.578125 39.3125 
Q 47.65625 37.796875 51.625 33 
Q 55.609375 28.21875 55.609375 21.1875 
Q 55.609375 10.40625 48.1875 4.484375 
Q 40.765625 -1.421875 27.09375 -1.421875 
Q 22.515625 -1.421875 17.65625 -0.515625 
Q 12.796875 0.390625 7.625 2.203125 
L 7.625 11.71875 
Q 11.71875 9.328125 16.59375 8.109375 
Q 21.484375 6.890625 26.8125 6.890625 
Q 36.078125 6.890625 40.9375 10.546875 
Q 45.796875 14.203125 45.796875 21.1875 
Q 45.796875 27.640625 41.28125 31.265625 
Q 36.765625 34.90625 28.71875 34.90625 
L 20.21875 34.90625 
L 20.21875 43.015625 
L 29.109375 43.015625 
Q 36.375 43.015625 40.234375 45.921875 
Q 44.09375 48.828125 44.09375 54.296875 
Q 44.09375 59.90625 40.109375 62.90625 
Q 36.140625 65.921875 28.71875 65.921875 
Q 24.65625 65.921875 20.015625 65.03125 
Q 15.375 64.15625 9.8125 62.3125 
L 9.8125 71.09375 
Q 15.4375 72.65625 20.34375 73.4375 
Q 25.25 74.21875 29.59375 74.21875 
Q 40.828125 74.21875 47.359375 69.109375 
Q 53.90625 64.015625 53.90625 55.328125 
Q 53.90625 49.265625 50.4375 45.09375 
Q 46.96875 40.921875 40.578125 39.3125 
z
" id="DejaVuSans-33"/>
      </defs>
      <g transform="translate(131.587605 188.378438)scale(0.1 -0.1)">
       <use xlink:href="#DejaVuSans-32"/>
       <use x="63.623047" xlink:href="#DejaVuSans-30"/>
       <use x="127.246094" xlink:href="#DejaVuSans-31"/>
       <use x="190.869141" xlink:href="#DejaVuSans-39"/>
       <use x="254.492188" xlink:href="#DejaVuSans-2d"/>
       <use x="290.576172" xlink:href="#DejaVuSans-31"/>
       <use x="354.199219" xlink:href="#DejaVuSans-32"/>
       <use x="417.822266" xlink:href="#DejaVuSans-2d"/>
       <use x="453.90625" xlink:href="#DejaVuSans-33"/>
       <use x="517.529297" xlink:href="#DejaVuSans-31"/>
      </g>
     </g>
    </g>
    <g id="xtick_3">
     <g id="line2d_3">
      <g>
       <use style="stroke:#000000;stroke-width:0.8;" x="253.784016" xlink:href="#md3e3580101" y="173.78"/>
      </g>
     </g>
     <g id="text_3">
      <!-- 2020-01-07 -->
      <defs>
       <path d="M 8.203125 72.90625 
L 55.078125 72.90625 
L 55.078125 68.703125 
L 28.609375 0 
L 18.3125 0 
L 43.21875 64.59375 
L 8.203125 64.59375 
z
" id="DejaVuSans-37"/>
      </defs>
      <g transform="translate(224.726204 188.378438)scale(0.1 -0.1)">
       <use xlink:href="#DejaVuSans-32"/>
       <use x="63.623047" xlink:href="#DejaVuSans-30"/>
       <use x="127.246094" xlink:href="#DejaVuSans-32"/>
       <use x="190.869141" xlink:href="#DejaVuSans-30"/>
       <use x="254.492188" xlink:href="#DejaVuSans-2d"/>
       <use x="290.576172" xlink:href="#DejaVuSans-30"/>
       <use x="354.199219" xlink:href="#DejaVuSans-31"/>
       <use x="417.822266" xlink:href="#DejaVuSans-2d"/>
       <use x="453.90625" xlink:href="#DejaVuSans-30"/>
       <use x="517.529297" xlink:href="#DejaVuSans-37"/>
      </g>
     </g>
    </g>
    <g id="xtick_4">
     <g id="line2d_4">
      <g>
       <use style="stroke:#000000;stroke-width:0.8;" x="346.922616" xlink:href="#md3e3580101" y="173.78"/>
      </g>
     </g>
     <g id="text_4">
      <!-- 2020-01-14 -->
      <g transform="translate(317.864803 188.378438)scale(0.1 -0.1)">
       <use xlink:href="#DejaVuSans-32"/>
       <use x="63.623047" xlink:href="#DejaVuSans-30"/>
       <use x="127.246094" xlink:href="#DejaVuSans-32"/>
       <use x="190.869141" xlink:href="#DejaVuSans-30"/>
       <use x="254.492188" xlink:href="#DejaVuSans-2d"/>
       <use x="290.576172" xlink:href="#DejaVuSans-30"/>
       <use x="354.199219" xlink:href="#DejaVuSans-31"/>
       <use x="417.822266" xlink:href="#DejaVuSans-2d"/>
       <use x="453.90625" xlink:href="#DejaVuSans-31"/>
       <use x="517.529297" xlink:href="#DejaVuSans-34"/>
      </g>
     </g>
    </g>
    <g id="xtick_5">
     <g id="line2d_5">
      <g>
       <use style="stroke:#000000;stroke-width:0.8;" x="440.061215" xlink:href="#md3e3580101" y="173.78"/>
      </g>
     </g>
     <g id="text_5">
      <!-- 2020-01-21 -->
      <g transform="translate(411.003402 188.378438)scale(0.1 -0.1)">
       <use xlink:href="#DejaVuSans-32"/>
       <use x="63.623047" xlink:href="#DejaVuSans-30"/>
       <use x="127.246094" xlink:href="#DejaVuSans-32"/>
       <use x="190.869141" xlink:href="#DejaVuSans-30"/>
       <use x="254.492188" xlink:href="#DejaVuSans-2d"/>
       <use x="290.576172" xlink:href="#DejaVuSans-30"/>
       <use x="354.199219" xlink:href="#DejaVuSans-31"/>
       <use x="417.822266" xlink:href="#DejaVuSans-2d"/>
       <use x="453.90625" xlink:href="#DejaVuSans-32"/>
       <use x="517.529297" xlink:href="#DejaVuSans-31"/>
      </g>
     </g>
    </g>
    <g id="xtick_6">
     <g id="line2d_6">
      <g>
       <use style="stroke:#000000;stroke-width:0.8;" x="533.199814" xlink:href="#md3e3580101" y="173.78"/>
      </g>
     </g>
     <g id="text_6">
      <!-- 2020-01-28 -->
      <defs>
       <path d="M 31.78125 34.625 
Q 24.75 34.625 20.71875 30.859375 
Q 16.703125 27.09375 16.703125 20.515625 
Q 16.703125 13.921875 20.71875 10.15625 
Q 24.75 6.390625 31.78125 6.390625 
Q 38.8125 6.390625 42.859375 10.171875 
Q 46.921875 13.96875 46.921875 20.515625 
Q 46.921875 27.09375 42.890625 30.859375 
Q 38.875 34.625 31.78125 34.625 
z
M 21.921875 38.8125 
Q 15.578125 40.375 12.03125 44.71875 
Q 8.5 49.078125 8.5 55.328125 
Q 8.5 64.0625 14.71875 69.140625 
Q 20.953125 74.21875 31.78125 74.21875 
Q 42.671875 74.21875 48.875 69.140625 
Q 55.078125 64.0625 55.078125 55.328125 
Q 55.078125 49.078125 51.53125 44.71875 
Q 48 40.375 41.703125 38.8125 
Q 48.828125 37.15625 52.796875 32.3125 
Q 56.78125 27.484375 56.78125 20.515625 
Q 56.78125 9.90625 50.3125 4.234375 
Q 43.84375 -1.421875 31.78125 -1.421875 
Q 19.734375 -1.421875 13.25 4.234375 
Q 6.78125 9.90625 6.78125 20.515625 
Q 6.78125 27.484375 10.78125 32.3125 
Q 14.796875 37.15625 21.921875 38.8125 
z
M 18.3125 54.390625 
Q 18.3125 48.734375 21.84375 45.5625 
Q 25.390625 42.390625 31.78125 42.390625 
Q 38.140625 42.390625 41.71875 45.5625 
Q 45.3125 48.734375 45.3125 54.390625 
Q 45.3125 60.0625 41.71875 63.234375 
Q 38.140625 66.40625 31.78125 66.40625 
Q 25.390625 66.40625 21.84375 63.234375 
Q 18.3125 60.0625 18.3125 54.390625 
z
" id="DejaVuSans-38"/>
      </defs>
      <g transform="translate(504.142001 188.378438)scale(0.1 -0.1)">
       <use xlink:href="#DejaVuSans-32"/>
       <use x="63.623047" xlink:href="#DejaVuSans-30"/>
       <use x="127.246094" xlink:href="#DejaVuSans-32"/>
       <use x="190.869141" xlink:href="#DejaVuSans-30"/>
       <use x="254.492188" xlink:href="#DejaVuSans-2d"/>
       <use x="290.576172" xlink:href="#DejaVuSans-30"/>
       <use x="354.199219" xlink:href="#DejaVuSans-31"/>
       <use x="417.822266" xlink:href="#DejaVuSans-2d"/>
       <use x="453.90625" xlink:href="#DejaVuSans-32"/>
       <use x="517.529297" xlink:href="#DejaVuSans-38"/>
      </g>
     </g>
    </g>
    <g id="xtick_7">
     <g id="line2d_7">
      <g>
       <use style="stroke:#000000;stroke-width:0.8;" x="626.338413" xlink:href="#md3e3580101" y="173.78"/>
      </g>
     </g>
     <g id="text_7">
      <!-- 2020-02-04 -->
      <g transform="translate(597.2806 188.378438)scale(0.1 -0.1)">
       <use xlink:href="#DejaVuSans-32"/>
       <use x="63.623047" xlink:href="#DejaVuSans-30"/>
       <use x="127.246094" xlink:href="#DejaVuSans-32"/>
       <use x="190.869141" xlink:href="#DejaVuSans-30"/>
       <use x="254.492188" xlink:href="#DejaVuSans-2d"/>
       <use x="290.576172" xlink:href="#DejaVuSans-30"/>
       <use x="354.199219" xlink:href="#DejaVuSans-32"/>
       <use x="417.822266" xlink:href="#DejaVuSans-2d"/>
       <use x="453.90625" xlink:href="#DejaVuSans-30"/>
       <use x="517.529297" xlink:href="#DejaVuSans-34"/>
      </g>
     </g>
    </g>
    <g id="xtick_8">
     <g id="line2d_8">
      <g>
       <use style="stroke:#000000;stroke-width:0.8;" x="719.477012" xlink:href="#md3e3580101" y="173.78"/>
      </g>
     </g>
     <g id="text_8">
      <!-- 2020-02-11 -->
      <g transform="translate(690.419199 188.378438)scale(0.1 -0.1)">
       <use xlink:href="#DejaVuSans-32"/>
       <use x="63.623047" xlink:href="#DejaVuSans-30"/>
       <use x="127.246094" xlink:href="#DejaVuSans-32"/>
       <use x="190.869141" xlink:href="#DejaVuSans-30"/>
       <use x="254.492188" xlink:href="#DejaVuSans-2d"/>
       <use x="290.576172" xlink:href="#DejaVuSans-30"/>
       <use x="354.199219" xlink:href="#DejaVuSans-32"/>
       <use x="417.822266" xlink:href="#DejaVuSans-2d"/>
       <use x="453.90625" xlink:href="#DejaVuSans-31"/>
       <use x="517.529297" xlink:href="#DejaVuSans-31"/>
      </g>
     </g>
    </g>
    <g id="xtick_9">
     <g id="line2d_9">
      <g>
       <use style="stroke:#000000;stroke-width:0.8;" x="812.615611" xlink:href="#md3e3580101" y="173.78"/>
      </g>
     </g>
     <g id="text_9">
      <!-- 2020-02-18 -->
      <g transform="translate(783.557799 188.378438)scale(0.1 -0.1)">
       <use xlink:href="#DejaVuSans-32"/>
       <use x="63.623047" xlink:href="#DejaVuSans-30"/>
       <use x="127.246094" xlink:href="#DejaVuSans-32"/>
       <use x="190.869141" xlink:href="#DejaVuSans-30"/>
       <use x="254.492188" xlink:href="#DejaVuSans-2d"/>
       <use x="290.576172" xlink:href="#DejaVuSans-30"/>
       <use x="354.199219" xlink:href="#DejaVuSans-32"/>
       <use x="417.822266" xlink:href="#DejaVuSans-2d"/>
       <use x="453.90625" xlink:href="#DejaVuSans-31"/>
       <use x="517.529297" xlink:href="#DejaVuSans-38"/>
      </g>
     </g>
    </g>
    <g id="xtick_10">
     <g id="line2d_10">
      <g>
       <use style="stroke:#000000;stroke-width:0.8;" x="905.75421" xlink:href="#md3e3580101" y="173.78"/>
      </g>
     </g>
     <g id="text_10">
      <!-- 2020-02-25 -->
      <defs>
       <path d="M 10.796875 72.90625 
L 49.515625 72.90625 
L 49.515625 64.59375 
L 19.828125 64.59375 
L 19.828125 46.734375 
Q 21.96875 47.46875 24.109375 47.828125 
Q 26.265625 48.1875 28.421875 48.1875 
Q 40.625 48.1875 47.75 41.5 
Q 54.890625 34.8125 54.890625 23.390625 
Q 54.890625 11.625 47.5625 5.09375 
Q 40.234375 -1.421875 26.90625 -1.421875 
Q 22.3125 -1.421875 17.546875 -0.640625 
Q 12.796875 0.140625 7.71875 1.703125 
L 7.71875 11.625 
Q 12.109375 9.234375 16.796875 8.0625 
Q 21.484375 6.890625 26.703125 6.890625 
Q 35.15625 6.890625 40.078125 11.328125 
Q 45.015625 15.765625 45.015625 23.390625 
Q 45.015625 31 40.078125 35.4375 
Q 35.15625 39.890625 26.703125 39.890625 
Q 22.75 39.890625 18.8125 39.015625 
Q 14.890625 38.140625 10.796875 36.28125 
z
" id="DejaVuSans-35"/>
      </defs>
      <g transform="translate(876.696398 188.378438)scale(0.1 -0.1)">
       <use xlink:href="#DejaVuSans-32"/>
       <use x="63.623047" xlink:href="#DejaVuSans-30"/>
       <use x="127.246094" xlink:href="#DejaVuSans-32"/>
       <use x="190.869141" xlink:href="#DejaVuSans-30"/>
       <use x="254.492188" xlink:href="#DejaVuSans-2d"/>
       <use x="290.576172" xlink:href="#DejaVuSans-30"/>
       <use x="354.199219" xlink:href="#DejaVuSans-32"/>
       <use x="417.822266" xlink:href="#DejaVuSans-2d"/>
       <use x="453.90625" xlink:href="#DejaVuSans-32"/>
       <use x="517.529297" xlink:href="#DejaVuSans-35"/>
      </g>
     </g>
    </g>
   </g>
   <g id="matplotlib.axis_2">
    <g id="ytick_1">
     <g id="line2d_11">
      <defs>
       <path d="M 0 0 
L -3.5 0 
" id="m2cec173a24" style="stroke:#000000;stroke-width:0.8;"/>
      </defs>
      <g>
       <use style="stroke:#000000;stroke-width:0.8;" x="26.925" xlink:href="#m2cec173a24" y="167.978735"/>
      </g>
     </g>
     <g id="text_11">
      <!-- 0 -->
      <g transform="translate(13.5625 171.777954)scale(0.1 -0.1)">
       <use xlink:href="#DejaVuSans-30"/>
      </g>
     </g>
    </g>
    <g id="ytick_2">
     <g id="line2d_12">
      <g>
       <use style="stroke:#000000;stroke-width:0.8;" x="26.925" xlink:href="#m2cec173a24" y="135.749486"/>
      </g>
     </g>
     <g id="text_12">
      <!-- 20 -->
      <g transform="translate(7.2 139.548705)scale(0.1 -0.1)">
       <use xlink:href="#DejaVuSans-32"/>
       <use x="63.623047" xlink:href="#DejaVuSans-30"/>
      </g>
     </g>
    </g>
    <g id="ytick_3">
     <g id="line2d_13">
      <g>
       <use style="stroke:#000000;stroke-width:0.8;" x="26.925" xlink:href="#m2cec173a24" y="103.520237"/>
      </g>
     </g>
     <g id="text_13">
      <!-- 40 -->
      <g transform="translate(7.2 107.319456)scale(0.1 -0.1)">
       <use xlink:href="#DejaVuSans-34"/>
       <use x="63.623047" xlink:href="#DejaVuSans-30"/>
      </g>
     </g>
    </g>
    <g id="ytick_4">
     <g id="line2d_14">
      <g>
       <use style="stroke:#000000;stroke-width:0.8;" x="26.925" xlink:href="#m2cec173a24" y="71.290988"/>
      </g>
     </g>
     <g id="text_14">
      <!-- 60 -->
      <defs>
       <path d="M 33.015625 40.375 
Q 26.375 40.375 22.484375 35.828125 
Q 18.609375 31.296875 18.609375 23.390625 
Q 18.609375 15.53125 22.484375 10.953125 
Q 26.375 6.390625 33.015625 6.390625 
Q 39.65625 6.390625 43.53125 10.953125 
Q 47.40625 15.53125 47.40625 23.390625 
Q 47.40625 31.296875 43.53125 35.828125 
Q 39.65625 40.375 33.015625 40.375 
z
M 52.59375 71.296875 
L 52.59375 62.3125 
Q 48.875 64.0625 45.09375 64.984375 
Q 41.3125 65.921875 37.59375 65.921875 
Q 27.828125 65.921875 22.671875 59.328125 
Q 17.53125 52.734375 16.796875 39.40625 
Q 19.671875 43.65625 24.015625 45.921875 
Q 28.375 48.1875 33.59375 48.1875 
Q 44.578125 48.1875 50.953125 41.515625 
Q 57.328125 34.859375 57.328125 23.390625 
Q 57.328125 12.15625 50.6875 5.359375 
Q 44.046875 -1.421875 33.015625 -1.421875 
Q 20.359375 -1.421875 13.671875 8.265625 
Q 6.984375 17.96875 6.984375 36.375 
Q 6.984375 53.65625 15.1875 63.9375 
Q 23.390625 74.21875 37.203125 74.21875 
Q 40.921875 74.21875 44.703125 73.484375 
Q 48.484375 72.75 52.59375 71.296875 
z
" id="DejaVuSans-36"/>
      </defs>
      <g transform="translate(7.2 75.090207)scale(0.1 -0.1)">
       <use xlink:href="#DejaVuSans-36"/>
       <use x="63.623047" xlink:href="#DejaVuSans-30"/>
      </g>
     </g>
    </g>
    <g id="ytick_5">
     <g id="line2d_15">
      <g>
       <use style="stroke:#000000;stroke-width:0.8;" x="26.925" xlink:href="#m2cec173a24" y="39.061739"/>
      </g>
     </g>
     <g id="text_15">
      <!-- 80 -->
      <g transform="translate(7.2 42.860958)scale(0.1 -0.1)">
       <use xlink:href="#DejaVuSans-38"/>
       <use x="63.623047" xlink:href="#DejaVuSans-30"/>
      </g>
     </g>
    </g>
   </g>
   <g id="line2d_16">
    <path clip-path="url(#peda3f88239)" d="M 67.506818 166.367273 
L 67.506818 164.75581 
L 94.117846 163.144348 
L 147.339903 161.532885 
L 147.339903 159.921423 
L 147.339903 158.30996 
L 147.339903 156.698498 
L 147.339903 155.087036 
L 147.339903 153.475573 
L 147.339903 151.864111 
L 147.339903 150.252648 
L 147.339903 148.641186 
L 147.339903 147.029723 
L 147.339903 145.418261 
L 173.950931 143.806798 
L 173.950931 142.195336 
L 173.950931 140.583874 
L 173.950931 138.972411 
L 173.950931 137.360949 
L 173.950931 135.749486 
L 187.256446 134.138024 
L 187.256446 132.526561 
L 267.089531 130.915099 
L 267.089531 129.303636 
L 307.006073 127.692174 
L 333.617101 126.080711 
L 333.617101 124.469249 
L 360.22813 122.857787 
L 373.533644 121.246324 
L 373.533644 119.634862 
L 386.839158 118.023399 
L 386.839158 116.411937 
L 400.144672 114.800474 
L 400.144672 113.189012 
L 413.450186 111.577549 
L 413.450186 109.966087 
L 426.7557 108.354625 
L 440.061215 106.743162 
L 453.366729 105.1317 
L 453.366729 103.520237 
L 453.366729 101.908775 
L 453.366729 100.297312 
L 453.366729 98.68585 
L 453.366729 97.074387 
L 453.366729 95.462925 
L 453.366729 93.851462 
L 466.672243 92.24 
L 466.672243 90.628538 
L 466.672243 89.017075 
L 466.672243 87.405613 
L 466.672243 85.79415 
L 466.672243 84.182688 
L 466.672243 82.571225 
L 466.672243 80.959763 
L 466.672243 79.3483 
L 479.977757 77.736838 
L 493.283271 76.125375 
L 493.283271 74.513913 
L 493.283271 72.902451 
L 493.283271 71.290988 
L 493.283271 69.679526 
L 493.283271 68.068063 
L 519.8943 66.456601 
L 519.8943 64.845138 
L 519.8943 63.233676 
L 533.199814 61.622213 
L 533.199814 60.010751 
L 533.199814 58.399289 
L 533.199814 56.787826 
L 546.505328 55.176364 
L 546.505328 53.564901 
L 546.505328 51.953439 
L 546.505328 50.341976 
L 546.505328 48.730514 
L 546.505328 47.119051 
L 546.505328 45.507589 
L 546.505328 43.896126 
L 559.810842 42.284664 
L 573.116356 40.673202 
L 573.116356 39.061739 
L 586.42187 37.450277 
L 586.42187 35.838814 
L 599.727385 34.227352 
L 599.727385 32.615889 
L 613.032899 31.004427 
L 626.338413 29.392964 
L 626.338413 27.781502 
L 639.643927 26.17004 
L 652.949441 24.558577 
L 692.865984 22.947115 
L 692.865984 21.335652 
L 706.171498 19.72419 
L 879.143182 18.112727 
" style="fill:none;stroke:#1ca4fc;stroke-linecap:square;stroke-width:1.5;"/>
    <defs>
     <path d="M 0 3 
C 0.795609 3 1.55874 2.683901 2.12132 2.12132 
C 2.683901 1.55874 3 0.795609 3 0 
C 3 -0.795609 2.683901 -1.55874 2.12132 -2.12132 
C 1.55874 -2.683901 0.795609 -3 0 -3 
C -0.795609 -3 -1.55874 -2.683901 -2.12132 -2.12132 
C -2.683901 -1.55874 -3 -0.795609 -3 0 
C -3 0.795609 -2.683901 1.55874 -2.12132 2.12132 
C -1.55874 2.683901 -0.795609 3 0 3 
z
" id="m83b69b1226" style="stroke:#1ca4fc;"/>
    </defs>
    <g clip-path="url(#peda3f88239)">
     <use style="fill:#1ca4fc;stroke:#1ca4fc;" x="67.506818" xlink:href="#m83b69b1226" y="166.367273"/>
     <use style="fill:#1ca4fc;stroke:#1ca4fc;" x="67.506818" xlink:href="#m83b69b1226" y="164.75581"/>
     <use style="fill:#1ca4fc;stroke:#1ca4fc;" x="94.117846" xlink:href="#m83b69b1226" y="163.144348"/>
     <use style="fill:#1ca4fc;stroke:#1ca4fc;" x="147.339903" xlink:href="#m83b69b1226" y="161.532885"/>
     <use style="fill:#1ca4fc;stroke:#1ca4fc;" x="147.339903" xlink:href="#m83b69b1226" y="159.921423"/>
     <use style="fill:#1ca4fc;stroke:#1ca4fc;" x="147.339903" xlink:href="#m83b69b1226" y="158.30996"/>
     <use style="fill:#1ca4fc;stroke:#1ca4fc;" x="147.339903" xlink:href="#m83b69b1226" y="156.698498"/>
     <use style="fill:#1ca4fc;stroke:#1ca4fc;" x="147.339903" xlink:href="#m83b69b1226" y="155.087036"/>
     <use style="fill:#1ca4fc;stroke:#1ca4fc;" x="147.339903" xlink:href="#m83b69b1226" y="153.475573"/>
     <use style="fill:#1ca4fc;stroke:#1ca4fc;" x="147.339903" xlink:href="#m83b69b1226" y="151.864111"/>
     <use style="fill:#1ca4fc;stroke:#1ca4fc;" x="147.339903" xlink:href="#m83b69b1226" y="150.252648"/>
     <use style="fill:#1ca4fc;stroke:#1ca4fc;" x="147.339903" xlink:href="#m83b69b1226" y="148.641186"/>
     <use style="fill:#1ca4fc;stroke:#1ca4fc;" x="147.339903" xlink:href="#m83b69b1226" y="147.029723"/>
     <use style="fill:#1ca4fc;stroke:#1ca4fc;" x="147.339903" xlink:href="#m83b69b1226" y="145.418261"/>
     <use style="fill:#1ca4fc;stroke:#1ca4fc;" x="173.950931" xlink:href="#m83b69b1226" y="143.806798"/>
     <use style="fill:#1ca4fc;stroke:#1ca4fc;" x="173.950931" xlink:href="#m83b69b1226" y="142.195336"/>
     <use style="fill:#1ca4fc;stroke:#1ca4fc;" x="173.950931" xlink:href="#m83b69b1226" y="140.583874"/>
     <use style="fill:#1ca4fc;stroke:#1ca4fc;" x="173.950931" xlink:href="#m83b69b1226" y="138.972411"/>
     <use style="fill:#1ca4fc;stroke:#1ca4fc;" x="173.950931" xlink:href="#m83b69b1226" y="137.360949"/>
     <use style="fill:#1ca4fc;stroke:#1ca4fc;" x="173.950931" xlink:href="#m83b69b1226" y="135.749486"/>
     <use style="fill:#1ca4fc;stroke:#1ca4fc;" x="187.256446" xlink:href="#m83b69b1226" y="134.138024"/>
     <use style="fill:#1ca4fc;stroke:#1ca4fc;" x="187.256446" xlink:href="#m83b69b1226" y="132.526561"/>
     <use style="fill:#1ca4fc;stroke:#1ca4fc;" x="267.089531" xlink:href="#m83b69b1226" y="130.915099"/>
     <use style="fill:#1ca4fc;stroke:#1ca4fc;" x="267.089531" xlink:href="#m83b69b1226" y="129.303636"/>
     <use style="fill:#1ca4fc;stroke:#1ca4fc;" x="307.006073" xlink:href="#m83b69b1226" y="127.692174"/>
     <use style="fill:#1ca4fc;stroke:#1ca4fc;" x="333.617101" xlink:href="#m83b69b1226" y="126.080711"/>
     <use style="fill:#1ca4fc;stroke:#1ca4fc;" x="333.617101" xlink:href="#m83b69b1226" y="124.469249"/>
     <use style="fill:#1ca4fc;stroke:#1ca4fc;" x="360.22813" xlink:href="#m83b69b1226" y="122.857787"/>
     <use style="fill:#1ca4fc;stroke:#1ca4fc;" x="373.533644" xlink:href="#m83b69b1226" y="121.246324"/>
     <use style="fill:#1ca4fc;stroke:#1ca4fc;" x="373.533644" xlink:href="#m83b69b1226" y="119.634862"/>
     <use style="fill:#1ca4fc;stroke:#1ca4fc;" x="386.839158" xlink:href="#m83b69b1226" y="118.023399"/>
     <use style="fill:#1ca4fc;stroke:#1ca4fc;" x="386.839158" xlink:href="#m83b69b1226" y="116.411937"/>
     <use style="fill:#1ca4fc;stroke:#1ca4fc;" x="400.144672" xlink:href="#m83b69b1226" y="114.800474"/>
     <use style="fill:#1ca4fc;stroke:#1ca4fc;" x="400.144672" xlink:href="#m83b69b1226" y="113.189012"/>
     <use style="fill:#1ca4fc;stroke:#1ca4fc;" x="413.450186" xlink:href="#m83b69b1226" y="111.577549"/>
     <use style="fill:#1ca4fc;stroke:#1ca4fc;" x="413.450186" xlink:href="#m83b69b1226" y="109.966087"/>
     <use style="fill:#1ca4fc;stroke:#1ca4fc;" x="426.7557" xlink:href="#m83b69b1226" y="108.354625"/>
     <use style="fill:#1ca4fc;stroke:#1ca4fc;" x="440.061215" xlink:href="#m83b69b1226" y="106.743162"/>
     <use style="fill:#1ca4fc;stroke:#1ca4fc;" x="453.366729" xlink:href="#m83b69b1226" y="105.1317"/>
     <use style="fill:#1ca4fc;stroke:#1ca4fc;" x="453.366729" xlink:href="#m83b69b1226" y="103.520237"/>
     <use style="fill:#1ca4fc;stroke:#1ca4fc;" x="453.366729" xlink:href="#m83b69b1226" y="101.908775"/>
     <use style="fill:#1ca4fc;stroke:#1ca4fc;" x="453.366729" xlink:href="#m83b69b1226" y="100.297312"/>
     <use style="fill:#1ca4fc;stroke:#1ca4fc;" x="453.366729" xlink:href="#m83b69b1226" y="98.68585"/>
     <use style="fill:#1ca4fc;stroke:#1ca4fc;" x="453.366729" xlink:href="#m83b69b1226" y="97.074387"/>
     <use style="fill:#1ca4fc;stroke:#1ca4fc;" x="453.366729" xlink:href="#m83b69b1226" y="95.462925"/>
     <use style="fill:#1ca4fc;stroke:#1ca4fc;" x="453.366729" xlink:href="#m83b69b1226" y="93.851462"/>
     <use style="fill:#1ca4fc;stroke:#1ca4fc;" x="466.672243" xlink:href="#m83b69b1226" y="92.24"/>
     <use style="fill:#1ca4fc;stroke:#1ca4fc;" x="466.672243" xlink:href="#m83b69b1226" y="90.628538"/>
     <use style="fill:#1ca4fc;stroke:#1ca4fc;" x="466.672243" xlink:href="#m83b69b1226" y="89.017075"/>
     <use style="fill:#1ca4fc;stroke:#1ca4fc;" x="466.672243" xlink:href="#m83b69b1226" y="87.405613"/>
     <use style="fill:#1ca4fc;stroke:#1ca4fc;" x="466.672243" xlink:href="#m83b69b1226" y="85.79415"/>
     <use style="fill:#1ca4fc;stroke:#1ca4fc;" x="466.672243" xlink:href="#m83b69b1226" y="84.182688"/>
     <use style="fill:#1ca4fc;stroke:#1ca4fc;" x="466.672243" xlink:href="#m83b69b1226" y="82.571225"/>
     <use style="fill:#1ca4fc;stroke:#1ca4fc;" x="466.672243" xlink:href="#m83b69b1226" y="80.959763"/>
     <use style="fill:#1ca4fc;stroke:#1ca4fc;" x="466.672243" xlink:href="#m83b69b1226" y="79.3483"/>
     <use style="fill:#1ca4fc;stroke:#1ca4fc;" x="479.977757" xlink:href="#m83b69b1226" y="77.736838"/>
     <use style="fill:#1ca4fc;stroke:#1ca4fc;" x="493.283271" xlink:href="#m83b69b1226" y="76.125375"/>
     <use style="fill:#1ca4fc;stroke:#1ca4fc;" x="493.283271" xlink:href="#m83b69b1226" y="74.513913"/>
     <use style="fill:#1ca4fc;stroke:#1ca4fc;" x="493.283271" xlink:href="#m83b69b1226" y="72.902451"/>
     <use style="fill:#1ca4fc;stroke:#1ca4fc;" x="493.283271" xlink:href="#m83b69b1226" y="71.290988"/>
     <use style="fill:#1ca4fc;stroke:#1ca4fc;" x="493.283271" xlink:href="#m83b69b1226" y="69.679526"/>
     <use style="fill:#1ca4fc;stroke:#1ca4fc;" x="493.283271" xlink:href="#m83b69b1226" y="68.068063"/>
     <use style="fill:#1ca4fc;stroke:#1ca4fc;" x="519.8943" xlink:href="#m83b69b1226" y="66.456601"/>
     <use style="fill:#1ca4fc;stroke:#1ca4fc;" x="519.8943" xlink:href="#m83b69b1226" y="64.845138"/>
     <use style="fill:#1ca4fc;stroke:#1ca4fc;" x="519.8943" xlink:href="#m83b69b1226" y="63.233676"/>
     <use style="fill:#1ca4fc;stroke:#1ca4fc;" x="533.199814" xlink:href="#m83b69b1226" y="61.622213"/>
     <use style="fill:#1ca4fc;stroke:#1ca4fc;" x="533.199814" xlink:href="#m83b69b1226" y="60.010751"/>
     <use style="fill:#1ca4fc;stroke:#1ca4fc;" x="533.199814" xlink:href="#m83b69b1226" y="58.399289"/>
     <use style="fill:#1ca4fc;stroke:#1ca4fc;" x="533.199814" xlink:href="#m83b69b1226" y="56.787826"/>
     <use style="fill:#1ca4fc;stroke:#1ca4fc;" x="546.505328" xlink:href="#m83b69b1226" y="55.176364"/>
     <use style="fill:#1ca4fc;stroke:#1ca4fc;" x="546.505328" xlink:href="#m83b69b1226" y="53.564901"/>
     <use style="fill:#1ca4fc;stroke:#1ca4fc;" x="546.505328" xlink:href="#m83b69b1226" y="51.953439"/>
     <use style="fill:#1ca4fc;stroke:#1ca4fc;" x="546.505328" xlink:href="#m83b69b1226" y="50.341976"/>
     <use style="fill:#1ca4fc;stroke:#1ca4fc;" x="546.505328" xlink:href="#m83b69b1226" y="48.730514"/>
     <use style="fill:#1ca4fc;stroke:#1ca4fc;" x="546.505328" xlink:href="#m83b69b1226" y="47.119051"/>
     <use style="fill:#1ca4fc;stroke:#1ca4fc;" x="546.505328" xlink:href="#m83b69b1226" y="45.507589"/>
     <use style="fill:#1ca4fc;stroke:#1ca4fc;" x="546.505328" xlink:href="#m83b69b1226" y="43.896126"/>
     <use style="fill:#1ca4fc;stroke:#1ca4fc;" x="559.810842" xlink:href="#m83b69b1226" y="42.284664"/>
     <use style="fill:#1ca4fc;stroke:#1ca4fc;" x="573.116356" xlink:href="#m83b69b1226" y="40.673202"/>
     <use style="fill:#1ca4fc;stroke:#1ca4fc;" x="573.116356" xlink:href="#m83b69b1226" y="39.061739"/>
     <use style="fill:#1ca4fc;stroke:#1ca4fc;" x="586.42187" xlink:href="#m83b69b1226" y="37.450277"/>
     <use style="fill:#1ca4fc;stroke:#1ca4fc;" x="586.42187" xlink:href="#m83b69b1226" y="35.838814"/>
     <use style="fill:#1ca4fc;stroke:#1ca4fc;" x="599.727385" xlink:href="#m83b69b1226" y="34.227352"/>
     <use style="fill:#1ca4fc;stroke:#1ca4fc;" x="599.727385" xlink:href="#m83b69b1226" y="32.615889"/>
     <use style="fill:#1ca4fc;stroke:#1ca4fc;" x="613.032899" xlink:href="#m83b69b1226" y="31.004427"/>
     <use style="fill:#1ca4fc;stroke:#1ca4fc;" x="626.338413" xlink:href="#m83b69b1226" y="29.392964"/>
     <use style="fill:#1ca4fc;stroke:#1ca4fc;" x="626.338413" xlink:href="#m83b69b1226" y="27.781502"/>
     <use style="fill:#1ca4fc;stroke:#1ca4fc;" x="639.643927" xlink:href="#m83b69b1226" y="26.17004"/>
     <use style="fill:#1ca4fc;stroke:#1ca4fc;" x="652.949441" xlink:href="#m83b69b1226" y="24.558577"/>
     <use style="fill:#1ca4fc;stroke:#1ca4fc;" x="692.865984" xlink:href="#m83b69b1226" y="22.947115"/>
     <use style="fill:#1ca4fc;stroke:#1ca4fc;" x="692.865984" xlink:href="#m83b69b1226" y="21.335652"/>
     <use style="fill:#1ca4fc;stroke:#1ca4fc;" x="706.171498" xlink:href="#m83b69b1226" y="19.72419"/>
     <use style="fill:#1ca4fc;stroke:#1ca4fc;" x="879.143182" xlink:href="#m83b69b1226" y="18.112727"/>
    </g>
   </g>
   <g id="line2d_17">
    <path clip-path="url(#peda3f88239)" d="M 227.172988 166.367273 
L 293.700559 164.75581 
L 307.006073 163.144348 
L 333.617101 161.532885 
L 346.922616 159.921423 
L 360.22813 158.30996 
L 360.22813 156.698498 
L 360.22813 155.087036 
L 386.839158 153.475573 
L 413.450186 151.864111 
L 440.061215 150.252648 
L 440.061215 148.641186 
L 453.366729 147.029723 
L 453.366729 145.418261 
L 466.672243 143.806798 
L 479.977757 142.195336 
L 479.977757 140.583874 
L 479.977757 138.972411 
L 493.283271 137.360949 
L 493.283271 135.749486 
L 493.283271 134.138024 
L 533.199814 132.526561 
L 533.199814 130.915099 
L 546.505328 129.303636 
L 546.505328 127.692174 
L 546.505328 126.080711 
L 559.810842 124.469249 
L 573.116356 122.857787 
L 573.116356 121.246324 
L 573.116356 119.634862 
L 613.032899 118.023399 
L 613.032899 116.411937 
L 639.643927 114.800474 
L 639.643927 113.189012 
L 652.949441 111.577549 
L 719.477012 109.966087 
" style="fill:none;stroke:#eb261f;stroke-linecap:square;stroke-width:1.5;"/>
    <defs>
     <path d="M 0 3 
C 0.795609 3 1.55874 2.683901 2.12132 2.12132 
C 2.683901 1.55874 3 0.795609 3 0 
C 3 -0.795609 2.683901 -1.55874 2.12132 -2.12132 
C 1.55874 -2.683901 0.795609 -3 0 -3 
C -0.795609 -3 -1.55874 -2.683901 -2.12132 -2.12132 
C -2.683901 -1.55874 -3 -0.795609 -3 0 
C -3 0.795609 -2.683901 1.55874 -2.12132 2.12132 
C -1.55874 2.683901 -0.795609 3 0 3 
z
" id="ma6edea2b52" style="stroke:#eb261f;"/>
    </defs>
    <g clip-path="url(#peda3f88239)">
     <use style="fill:#eb261f;stroke:#eb261f;" x="227.172988" xlink:href="#ma6edea2b52" y="166.367273"/>
     <use style="fill:#eb261f;stroke:#eb261f;" x="293.700559" xlink:href="#ma6edea2b52" y="164.75581"/>
     <use style="fill:#eb261f;stroke:#eb261f;" x="307.006073" xlink:href="#ma6edea2b52" y="163.144348"/>
     <use style="fill:#eb261f;stroke:#eb261f;" x="333.617101" xlink:href="#ma6edea2b52" y="161.532885"/>
     <use style="fill:#eb261f;stroke:#eb261f;" x="346.922616" xlink:href="#ma6edea2b52" y="159.921423"/>
     <use style="fill:#eb261f;stroke:#eb261f;" x="360.22813" xlink:href="#ma6edea2b52" y="158.30996"/>
     <use style="fill:#eb261f;stroke:#eb261f;" x="360.22813" xlink:href="#ma6edea2b52" y="156.698498"/>
     <use style="fill:#eb261f;stroke:#eb261f;" x="360.22813" xlink:href="#ma6edea2b52" y="155.087036"/>
     <use style="fill:#eb261f;stroke:#eb261f;" x="386.839158" xlink:href="#ma6edea2b52" y="153.475573"/>
     <use style="fill:#eb261f;stroke:#eb261f;" x="413.450186" xlink:href="#ma6edea2b52" y="151.864111"/>
     <use style="fill:#eb261f;stroke:#eb261f;" x="440.061215" xlink:href="#ma6edea2b52" y="150.252648"/>
     <use style="fill:#eb261f;stroke:#eb261f;" x="440.061215" xlink:href="#ma6edea2b52" y="148.641186"/>
     <use style="fill:#eb261f;stroke:#eb261f;" x="453.366729" xlink:href="#ma6edea2b52" y="147.029723"/>
     <use style="fill:#eb261f;stroke:#eb261f;" x="453.366729" xlink:href="#ma6edea2b52" y="145.418261"/>
     <use style="fill:#eb261f;stroke:#eb261f;" x="466.672243" xlink:href="#ma6edea2b52" y="143.806798"/>
     <use style="fill:#eb261f;stroke:#eb261f;" x="479.977757" xlink:href="#ma6edea2b52" y="142.195336"/>
     <use style="fill:#eb261f;stroke:#eb261f;" x="479.977757" xlink:href="#ma6edea2b52" y="140.583874"/>
     <use style="fill:#eb261f;stroke:#eb261f;" x="479.977757" xlink:href="#ma6edea2b52" y="138.972411"/>
     <use style="fill:#eb261f;stroke:#eb261f;" x="493.283271" xlink:href="#ma6edea2b52" y="137.360949"/>
     <use style="fill:#eb261f;stroke:#eb261f;" x="493.283271" xlink:href="#ma6edea2b52" y="135.749486"/>
     <use style="fill:#eb261f;stroke:#eb261f;" x="493.283271" xlink:href="#ma6edea2b52" y="134.138024"/>
     <use style="fill:#eb261f;stroke:#eb261f;" x="533.199814" xlink:href="#ma6edea2b52" y="132.526561"/>
     <use style="fill:#eb261f;stroke:#eb261f;" x="533.199814" xlink:href="#ma6edea2b52" y="130.915099"/>
     <use style="fill:#eb261f;stroke:#eb261f;" x="546.505328" xlink:href="#ma6edea2b52" y="129.303636"/>
     <use style="fill:#eb261f;stroke:#eb261f;" x="546.505328" xlink:href="#ma6edea2b52" y="127.692174"/>
     <use style="fill:#eb261f;stroke:#eb261f;" x="546.505328" xlink:href="#ma6edea2b52" y="126.080711"/>
     <use style="fill:#eb261f;stroke:#eb261f;" x="559.810842" xlink:href="#ma6edea2b52" y="124.469249"/>
     <use style="fill:#eb261f;stroke:#eb261f;" x="573.116356" xlink:href="#ma6edea2b52" y="122.857787"/>
     <use style="fill:#eb261f;stroke:#eb261f;" x="573.116356" xlink:href="#ma6edea2b52" y="121.246324"/>
     <use style="fill:#eb261f;stroke:#eb261f;" x="573.116356" xlink:href="#ma6edea2b52" y="119.634862"/>
     <use style="fill:#eb261f;stroke:#eb261f;" x="613.032899" xlink:href="#ma6edea2b52" y="118.023399"/>
     <use style="fill:#eb261f;stroke:#eb261f;" x="613.032899" xlink:href="#ma6edea2b52" y="116.411937"/>
     <use style="fill:#eb261f;stroke:#eb261f;" x="639.643927" xlink:href="#ma6edea2b52" y="114.800474"/>
     <use style="fill:#eb261f;stroke:#eb261f;" x="639.643927" xlink:href="#ma6edea2b52" y="113.189012"/>
     <use style="fill:#eb261f;stroke:#eb261f;" x="652.949441" xlink:href="#ma6edea2b52" y="111.577549"/>
     <use style="fill:#eb261f;stroke:#eb261f;" x="719.477012" xlink:href="#ma6edea2b52" y="109.966087"/>
    </g>
   </g>
   <g id="patch_3">
    <path d="M 26.925 173.78 
L 26.925 10.7 
" style="fill:none;stroke:#000000;stroke-linecap:square;stroke-linejoin:miter;stroke-width:0.8;"/>
   </g>
   <g id="patch_4">
    <path d="M 26.925 173.78 
L 919.725 173.78 
" style="fill:none;stroke:#000000;stroke-linecap:square;stroke-linejoin:miter;stroke-width:0.8;"/>
   </g>
   <g id="legend_1">
    <g id="patch_5">
     <path d="M 33.925 48.05625 
L 80.035938 48.05625 
Q 82.035938 48.05625 82.035938 46.05625 
L 82.035938 17.7 
Q 82.035938 15.7 80.035938 15.7 
L 33.925 15.7 
Q 31.925 15.7 31.925 17.7 
L 31.925 46.05625 
Q 31.925 48.05625 33.925 48.05625 
z
" style="fill:#ffffff;opacity:0.8;stroke:#cccccc;stroke-linejoin:miter;"/>
    </g>
    <g id="line2d_18">
     <path d="M 35.925 23.798438 
L 55.925 23.798438 
" style="fill:none;stroke:#1ca4fc;stroke-linecap:square;stroke-width:1.5;"/>
    </g>
    <g id="line2d_19">
     <g>
      <use style="fill:#1ca4fc;stroke:#1ca4fc;" x="45.925" xlink:href="#m83b69b1226" y="23.798438"/>
     </g>
    </g>
    <g id="text_16">
     <!-- G2 -->
     <defs>
      <path d="M 59.515625 10.40625 
L 59.515625 29.984375 
L 43.40625 29.984375 
L 43.40625 38.09375 
L 69.28125 38.09375 
L 69.28125 6.78125 
Q 63.578125 2.734375 56.6875 0.65625 
Q 49.8125 -1.421875 42 -1.421875 
Q 24.90625 -1.421875 15.25 8.5625 
Q 5.609375 18.5625 5.609375 36.375 
Q 5.609375 54.25 15.25 64.234375 
Q 24.90625 74.21875 42 74.21875 
Q 49.125 74.21875 55.546875 72.453125 
Q 61.96875 70.703125 67.390625 67.28125 
L 67.390625 56.78125 
Q 61.921875 61.421875 55.765625 63.765625 
Q 49.609375 66.109375 42.828125 66.109375 
Q 29.4375 66.109375 22.71875 58.640625 
Q 16.015625 51.171875 16.015625 36.375 
Q 16.015625 21.625 22.71875 14.15625 
Q 29.4375 6.6875 42.828125 6.6875 
Q 48.046875 6.6875 52.140625 7.59375 
Q 56.25 8.5 59.515625 10.40625 
z
" id="DejaVuSans-47"/>
     </defs>
     <g transform="translate(63.925 27.298438)scale(0.1 -0.1)">
      <use xlink:href="#DejaVuSans-47"/>
      <use x="77.490234" xlink:href="#DejaVuSans-32"/>
     </g>
    </g>
    <g id="line2d_20">
     <path d="M 35.925 38.476562 
L 55.925 38.476562 
" style="fill:none;stroke:#eb261f;stroke-linecap:square;stroke-width:1.5;"/>
    </g>
    <g id="line2d_21">
     <g>
      <use style="fill:#eb261f;stroke:#eb261f;" x="45.925" xlink:href="#ma6edea2b52" y="38.476562"/>
     </g>
    </g>
    <g id="text_17">
     <!-- G1 -->
     <g transform="translate(63.925 41.976562)scale(0.1 -0.1)">
      <use xlink:href="#DejaVuSans-47"/>
      <use x="77.490234" xlink:href="#DejaVuSans-31"/>
     </g>
    </g>
   </g>
  </g>
 </g>
 <defs>
  <clipPath id="peda3f88239">
   <rect height="163.08" width="892.8" x="26.925" y="10.7"/>
  </clipPath>
 </defs>
</svg>
